<svg xmlns="http://www.w3.org/2000/svg" xmlns:xlink="http://www.w3.org/1999/xlink" width="500" zoomAndPan="magnify" viewBox="0 0 375 374.999991" height="500" preserveAspectRatio="xMidYMid meet" version="1.0"><defs><clipPath id="id1"><path d="M 195 155 L 354 155 L 354 337.6875 L 195 337.6875 Z M 195 155 " clip-rule="nonzero"/></clipPath><clipPath id="id2"><path d="M 21 155 L 180 155 L 180 337.6875 L 21 337.6875 Z M 21 155 " clip-rule="nonzero"/></clipPath><clipPath id="id3"><path d="M 139 48.9375 L 299 48.9375 L 299 186 L 139 186 Z M 139 48.9375 " clip-rule="nonzero"/></clipPath></defs><rect x="-37.5" width="450" fill="#ffffff" y="-37.499999" height="449.999989" fill-opacity="1"/><rect x="-37.5" width="450" fill="#ffffff" y="-37.499999" height="449.999989" fill-opacity="1"/><rect x="-37.5" width="450" fill="#ffffff" y="-37.499999" height="449.999989" fill-opacity="1"/><path fill="#ffffff" d="M 222.84375 184.992188 C 222.84375 184.992188 215.765625 194.511719 212.835938 213.796875 C 212.835938 213.796875 215.277344 226 212.835938 233.324219 C 210.402344 240.644531 203.503906 249.460938 199.703125 255.046875 C 198.476562 256.851562 197.800781 263.335938 202.101562 264.324219 C 207.476562 265.542969 213.453125 266.03125 213.453125 266.03125 C 213.453125 266.03125 213.085938 271.15625 211.136719 273.355469 C 211.136719 273.355469 211.703125 277.253906 214.347656 278.96875 C 214.347656 278.96875 220.652344 279.941406 220.890625 280.917969 C 220.890625 280.917969 218.496094 282.382812 216.746094 283.847656 C 214.992188 285.3125 214.527344 287.96875 214.773438 289.675781 C 215.019531 291.390625 216.402344 293.058594 217.902344 294.6875 C 220.257812 297.246094 220.332031 297.835938 220.082031 306.707031 C 219.878906 313.785156 222.089844 319.152344 225.929688 319.339844 C 225.929688 319.339844 238.394531 322.902344 259.253906 317.957031 C 259.253906 317.957031 261.078125 328.027344 258.335938 334.132812 L 329.257812 334.132812 C 329.257812 334.132812 318.617188 309.578125 322.613281 298.003906 C 326.558594 286.550781 336.253906 272.875 339.929688 265.421875 C 356.03125 232.832031 353.753906 195.6875 326.753906 176.816406 C 277 142.03125 234.800781 165.710938 222.84375 184.992188 " fill-opacity="1" fill-rule="nonzero"/><g clip-path="url(#id1)"><path fill="#040606" d="M 222.84375 184.992188 L 219.96875 182.851562 C 219.695312 183.210938 212.328125 193.292969 209.300781 213.257812 C 209.234375 213.679688 209.246094 214.082031 209.328125 214.5 L 209.335938 214.535156 C 209.433594 215.027344 210.347656 219.988281 210.339844 225.003906 C 210.347656 227.667969 210.066406 230.351562 209.441406 232.191406 C 208.410156 235.3125 206.21875 239.175781 203.789062 242.867188 C 201.351562 246.574219 198.710938 250.136719 196.742188 253.03125 C 196.417969 253.507812 196.203125 253.960938 196.015625 254.421875 C 195.480469 255.792969 195.207031 257.3125 195.195312 259.003906 C 195.203125 260.570312 195.441406 262.289062 196.339844 263.996094 C 196.785156 264.84375 197.429688 265.679688 198.28125 266.367188 C 199.132812 267.050781 200.183594 267.558594 201.308594 267.816406 C 207.023438 269.105469 213.074219 269.59375 213.164062 269.605469 L 213.453125 266.03125 L 209.882812 265.773438 L 210.8125 265.839844 L 209.882812 265.769531 L 209.882812 265.773438 L 210.8125 265.839844 L 209.882812 265.769531 C 209.882812 265.808594 209.78125 266.972656 209.496094 268.230469 C 209.355469 268.859375 209.171875 269.507812 208.964844 270.023438 C 208.761719 270.539062 208.523438 270.910156 208.457031 270.976562 C 207.75 271.765625 207.4375 272.820312 207.589844 273.871094 C 207.621094 274.050781 207.796875 275.261719 208.421875 276.84375 C 208.734375 277.636719 209.171875 278.527344 209.796875 279.425781 C 210.429688 280.324219 211.269531 281.242188 212.40625 281.976562 C 212.828125 282.25 213.308594 282.429688 213.800781 282.507812 L 213.851562 282.511719 C 214.148438 282.5625 215.660156 282.816406 217 283.132812 C 217.664062 283.285156 218.300781 283.476562 218.597656 283.589844 L 218.730469 283.644531 L 218.730469 283.648438 L 219.476562 282.15625 L 218.414062 283.425781 C 218.648438 283.617188 218.726562 283.644531 218.730469 283.648438 L 219.476562 282.15625 L 218.414062 283.425781 L 220.257812 281.21875 L 217.949219 282.925781 C 218.136719 283.179688 218.292969 283.324219 218.414062 283.425781 L 220.257812 281.21875 L 217.949219 282.925781 L 220.554688 281 L 217.417969 281.78125 C 217.542969 282.304688 217.761719 282.679688 217.949219 282.925781 L 220.554688 281 L 217.417969 281.78125 L 220.890625 280.917969 L 219.023438 277.859375 C 218.988281 277.882812 218.355469 278.269531 217.476562 278.855469 C 216.597656 279.449219 215.484375 280.226562 214.449219 281.089844 L 214.445312 281.097656 C 213.125 282.210938 212.3125 283.589844 211.820312 284.910156 C 211.328125 286.25 211.128906 287.554688 211.128906 288.785156 C 211.128906 289.261719 211.160156 289.730469 211.230469 290.207031 L 211.226562 290.1875 C 211.472656 291.828125 212.167969 293.125 212.898438 294.21875 C 213.644531 295.320312 214.476562 296.257812 215.273438 297.117188 C 215.691406 297.574219 215.964844 297.898438 216.105469 298.09375 C 216.300781 298.40625 216.3125 298.394531 216.425781 298.859375 C 216.519531 299.3125 216.597656 300.25 216.59375 301.773438 C 216.59375 302.984375 216.554688 304.566406 216.5 306.613281 L 216.5 306.605469 C 216.488281 306.917969 216.480469 307.246094 216.480469 307.582031 C 216.492188 311.292969 217.058594 314.644531 218.390625 317.4375 C 219.066406 318.832031 219.957031 320.113281 221.195312 321.132812 C 222.414062 322.152344 224.046875 322.847656 225.761719 322.921875 L 225.929688 319.339844 L 224.949219 322.785156 C 225.21875 322.863281 229.898438 324.164062 238.136719 324.164062 C 243.839844 324.164062 251.253906 323.542969 260.074219 321.449219 L 259.253906 317.957031 L 255.726562 318.601562 L 256.464844 318.46875 L 255.726562 318.597656 L 255.726562 318.601562 L 256.464844 318.46875 L 255.726562 318.597656 C 255.738281 318.667969 256.269531 321.714844 256.261719 325.210938 C 256.28125 327.898438 255.90625 330.855469 255.070312 332.664062 C 254.574219 333.769531 254.675781 335.0625 255.328125 336.082031 C 255.988281 337.09375 257.125 337.714844 258.335938 337.714844 L 329.257812 337.714844 C 330.464844 337.714844 331.589844 337.113281 332.25 336.097656 C 332.917969 335.085938 333.023438 333.820312 332.542969 332.703125 L 332.527344 332.671875 C 332.339844 332.226562 330.5 327.882812 328.726562 322.242188 C 327.839844 319.425781 326.972656 316.289062 326.335938 313.175781 C 325.699219 310.0625 325.292969 306.96875 325.300781 304.316406 C 325.292969 302.253906 325.546875 300.472656 326 299.175781 C 327.820312 293.871094 331.132812 287.722656 334.46875 282.019531 C 336.136719 279.164062 337.808594 276.402344 339.308594 273.871094 C 340.816406 271.335938 342.140625 269.039062 343.144531 267.011719 C 349.949219 253.226562 353.609375 238.621094 353.609375 224.695312 C 353.609375 214.640625 351.695312 204.929688 347.621094 196.214844 C 343.550781 187.507812 337.300781 179.804688 328.808594 173.875 C 309.792969 160.574219 291.5625 155.4375 275.550781 155.445312 C 262.023438 155.445312 250.128906 159.085938 240.625 164.328125 C 231.113281 169.589844 223.964844 176.40625 219.800781 183.097656 L 222.84375 184.992188 L 219.96875 182.851562 L 222.84375 184.992188 L 225.890625 186.878906 C 229.230469 181.464844 235.554688 175.296875 244.078125 170.605469 C 252.613281 165.902344 263.320312 162.613281 275.550781 162.613281 C 290.027344 162.625 306.71875 167.1875 324.707031 179.757812 C 332.167969 184.976562 337.550781 191.617188 341.128906 199.257812 C 344.703125 206.894531 346.445312 215.546875 346.445312 224.695312 C 346.449219 237.355469 343.09375 250.949219 336.722656 263.828125 C 335.882812 265.53125 334.617188 267.734375 333.148438 270.214844 C 330.9375 273.945312 328.25 278.324219 325.726562 282.886719 C 323.195312 287.464844 320.824219 292.214844 319.226562 296.832031 C 318.417969 299.191406 318.136719 301.71875 318.136719 304.316406 C 318.136719 307.78125 318.652344 311.40625 319.390625 314.945312 C 321.617188 325.535156 325.925781 335.4375 325.972656 335.558594 L 329.257812 334.132812 L 329.257812 330.546875 L 258.335938 330.546875 L 258.335938 334.132812 L 261.601562 335.601562 C 263.113281 332.171875 263.410156 328.449219 263.425781 325.210938 C 263.421875 320.898438 262.796875 317.449219 262.773438 317.320312 C 262.597656 316.351562 262.035156 315.5 261.210938 314.960938 C 260.386719 314.425781 259.382812 314.246094 258.425781 314.476562 C 250.164062 316.429688 243.316406 316.996094 238.136719 316.996094 C 234.390625 316.996094 231.519531 316.703125 229.617188 316.417969 C 228.664062 316.273438 227.953125 316.132812 227.5 316.03125 C 227.273438 315.980469 227.109375 315.941406 227.015625 315.917969 L 226.914062 315.890625 L 226.875 316.039062 L 226.914062 315.890625 L 226.875 316.039062 L 226.914062 315.890625 C 226.667969 315.820312 226.367188 315.769531 226.101562 315.757812 C 225.972656 315.742188 225.953125 315.75 225.726562 315.589844 C 225.414062 315.355469 224.804688 314.519531 224.367188 313.101562 C 223.925781 311.695312 223.644531 309.769531 223.644531 307.582031 C 223.644531 307.339844 223.652344 307.082031 223.65625 306.808594 L 223.65625 306.800781 C 223.710938 304.757812 223.757812 303.140625 223.757812 301.773438 C 223.757812 300.628906 223.730469 299.667969 223.640625 298.765625 C 223.574219 298.085938 223.464844 297.445312 223.296875 296.804688 C 223.046875 295.851562 222.617188 294.929688 222.113281 294.183594 C 221.609375 293.433594 221.078125 292.847656 220.535156 292.257812 C 219.828125 291.492188 219.21875 290.773438 218.832031 290.203125 C 218.441406 289.632812 218.324219 289.238281 218.324219 289.171875 L 218.316406 289.148438 C 218.304688 289.070312 218.292969 288.941406 218.292969 288.785156 C 218.289062 288.371094 218.378906 287.820312 218.535156 287.40625 C 218.691406 286.980469 218.898438 286.707031 219.042969 286.597656 L 219.039062 286.597656 C 219.753906 286.003906 220.710938 285.320312 221.46875 284.808594 C 221.847656 284.558594 222.179688 284.34375 222.410156 284.199219 L 222.675781 284.023438 L 222.746094 283.984375 L 222.753906 283.980469 C 224.085938 283.164062 224.742188 281.570312 224.367188 280.058594 C 224.125 279.136719 223.679688 278.585938 223.335938 278.230469 C 222.671875 277.578125 222.203125 277.378906 221.765625 277.152344 C 221.003906 276.800781 220.296875 276.59375 219.558594 276.386719 C 218.460938 276.089844 217.328125 275.859375 216.4375 275.691406 C 215.550781 275.523438 214.925781 275.429688 214.898438 275.421875 L 214.347656 278.96875 L 216.292969 275.953125 C 216.105469 275.835938 215.882812 275.625 215.664062 275.304688 C 215.328125 274.839844 215.039062 274.15625 214.875 273.621094 C 214.792969 273.351562 214.734375 273.121094 214.707031 272.976562 L 214.679688 272.824219 L 214.671875 272.808594 L 212.847656 273.105469 L 214.679688 272.835938 L 214.671875 272.808594 L 212.847656 273.105469 L 214.679688 272.835938 L 211.136719 273.355469 L 213.8125 275.738281 C 214.710938 274.707031 215.238281 273.625 215.652344 272.589844 C 216.257812 271.03125 216.570312 269.527344 216.765625 268.355469 C 216.960938 267.191406 217.023438 266.367188 217.03125 266.292969 C 217.167969 264.328125 215.710938 262.621094 213.75 262.457031 L 213.695312 262.453125 C 213.105469 262.40625 207.617188 261.902344 202.898438 260.824219 C 202.769531 260.789062 202.78125 260.785156 202.769531 260.777344 C 202.761719 260.773438 202.667969 260.695312 202.550781 260.367188 C 202.4375 260.054688 202.355469 259.546875 202.359375 259.003906 C 202.355469 258.488281 202.429688 257.9375 202.527344 257.539062 C 202.574219 257.339844 202.628906 257.175781 202.667969 257.082031 L 202.703125 257.003906 L 202.148438 256.710938 L 202.664062 257.066406 L 202.703125 257.003906 L 202.148438 256.710938 L 202.664062 257.066406 L 202.667969 257.066406 C 204.492188 254.363281 207.203125 250.726562 209.777344 246.800781 C 212.351562 242.855469 214.832031 238.65625 216.242188 234.457031 C 217.238281 231.414062 217.5 228.128906 217.503906 225.003906 C 217.5 218.785156 216.375 213.222656 216.351562 213.09375 L 212.835938 213.796875 L 216.378906 214.332031 C 217.796875 205.03125 220.199219 198.140625 222.210938 193.621094 C 223.21875 191.359375 224.125 189.691406 224.769531 188.609375 C 225.089844 188.066406 225.347656 187.675781 225.507812 187.429688 L 225.6875 187.171875 L 225.722656 187.121094 L 225.726562 187.113281 L 224.019531 185.867188 L 225.714844 187.125 L 225.726562 187.113281 L 224.019531 185.867188 L 225.714844 187.125 L 225.890625 186.878906 L 222.84375 184.992188 " fill-opacity="1" fill-rule="nonzero"/></g><path fill="#ffffff" d="M 152.304688 184.992188 C 152.304688 184.992188 159.378906 194.511719 162.304688 213.796875 C 162.304688 213.796875 159.863281 226 162.304688 233.324219 C 164.746094 240.644531 171.644531 249.460938 175.441406 255.046875 C 176.664062 256.851562 177.34375 263.335938 173.035156 264.324219 C 167.671875 265.542969 161.6875 266.03125 161.6875 266.03125 C 161.6875 266.03125 162.058594 271.15625 164.011719 273.355469 C 164.011719 273.355469 163.441406 277.253906 160.792969 278.96875 C 160.792969 278.96875 154.503906 279.941406 154.257812 280.917969 C 154.257812 280.917969 156.652344 282.382812 158.398438 283.847656 C 160.148438 285.3125 160.613281 287.96875 160.367188 289.675781 C 160.121094 291.390625 158.746094 293.058594 157.246094 294.6875 C 154.882812 297.246094 154.808594 297.835938 155.0625 306.707031 C 155.261719 313.785156 153.054688 319.152344 149.214844 319.339844 C 149.214844 319.339844 136.753906 322.902344 115.894531 317.957031 C 115.894531 317.957031 114.066406 328.027344 116.808594 334.132812 L 45.886719 334.132812 C 45.886719 334.132812 56.53125 309.578125 52.535156 298.003906 C 48.582031 286.550781 38.894531 272.875 35.210938 265.421875 C 19.117188 232.832031 21.386719 195.6875 48.386719 176.816406 C 98.148438 142.03125 140.355469 165.710938 152.304688 184.992188 " fill-opacity="1" fill-rule="nonzero"/><g clip-path="url(#id2)"><path fill="#040606" d="M 152.304688 184.992188 L 149.425781 187.125 L 151.167969 185.832031 L 149.421875 187.113281 L 149.425781 187.125 L 151.167969 185.832031 L 149.421875 187.113281 L 149.480469 187.210938 C 150.175781 188.207031 156.152344 197.164062 158.761719 214.332031 L 162.304688 213.796875 L 158.796875 213.089844 C 158.773438 213.21875 157.640625 218.785156 157.636719 225.003906 C 157.648438 228.128906 157.90625 231.414062 158.90625 234.460938 L 158.90625 234.457031 C 160.316406 238.65625 162.792969 242.855469 165.371094 246.800781 C 167.945312 250.726562 170.648438 254.363281 172.480469 257.066406 L 172.996094 256.710938 L 172.433594 256.996094 L 172.480469 257.058594 L 172.996094 256.710938 L 172.433594 256.996094 C 172.453125 257.019531 172.574219 257.316406 172.648438 257.691406 C 172.730469 258.074219 172.78125 258.546875 172.78125 259.003906 C 172.792969 259.730469 172.625 260.386719 172.484375 260.621094 L 172.371094 260.777344 C 172.355469 260.785156 172.367188 260.789062 172.238281 260.824219 C 169.738281 261.394531 166.988281 261.8125 164.894531 262.078125 C 163.855469 262.210938 162.964844 262.304688 162.347656 262.367188 C 162.035156 262.402344 161.796875 262.425781 161.632812 262.433594 L 161.449219 262.453125 L 161.398438 262.457031 C 159.433594 262.621094 157.972656 264.324219 158.117188 266.289062 C 158.125 266.394531 158.222656 267.804688 158.617188 269.625 C 158.8125 270.539062 159.082031 271.554688 159.488281 272.589844 C 159.902344 273.625 160.429688 274.707031 161.332031 275.738281 L 164.011719 273.355469 L 160.46875 272.835938 L 161.75 273.019531 L 160.46875 272.808594 L 160.46875 272.835938 L 161.75 273.019531 L 160.46875 272.808594 C 160.46875 272.839844 160.328125 273.597656 160.003906 274.34375 C 159.847656 274.71875 159.644531 275.085938 159.4375 275.367188 C 159.230469 275.652344 159.023438 275.84375 158.851562 275.953125 L 160.792969 278.96875 L 160.246094 275.421875 C 160.199219 275.433594 158.578125 275.679688 156.820312 276.082031 C 155.933594 276.285156 155.027344 276.515625 154.148438 276.835938 C 153.703125 277.003906 153.265625 277.179688 152.726562 277.5 C 152.464844 277.667969 152.164062 277.871094 151.808594 278.230469 C 151.46875 278.585938 151.019531 279.136719 150.78125 280.054688 C 150.398438 281.578125 151.050781 283.15625 152.386719 283.980469 L 152.402344 283.984375 C 152.511719 284.054688 153.085938 284.410156 153.820312 284.910156 C 154.546875 285.402344 155.4375 286.035156 156.101562 286.597656 L 156.097656 286.589844 C 156.242188 286.707031 156.449219 286.976562 156.605469 287.40625 C 156.761719 287.820312 156.847656 288.371094 156.847656 288.785156 C 156.847656 288.9375 156.835938 289.082031 156.820312 289.199219 L 156.824219 289.167969 C 156.824219 289.238281 156.703125 289.632812 156.308594 290.207031 C 155.925781 290.777344 155.320312 291.492188 154.609375 292.257812 L 154.613281 292.253906 C 154.128906 292.777344 153.664062 293.300781 153.203125 293.9375 C 152.511719 294.882812 151.9375 296.15625 151.691406 297.449219 C 151.441406 298.75 151.386719 300.066406 151.386719 301.777344 C 151.386719 303.140625 151.425781 304.761719 151.484375 306.8125 L 151.484375 306.800781 C 151.492188 307.058594 151.492188 307.324219 151.492188 307.585938 C 151.507812 310.507812 150.976562 312.953125 150.300781 314.328125 C 149.964844 315.019531 149.617188 315.421875 149.410156 315.589844 C 149.191406 315.75 149.167969 315.742188 149.039062 315.757812 C 148.777344 315.773438 148.472656 315.820312 148.226562 315.890625 L 148.257812 316 L 148.226562 315.890625 L 148.257812 316 L 148.226562 315.890625 C 147.988281 315.957031 144.019531 316.996094 137.011719 316.996094 C 131.824219 316.996094 124.980469 316.429688 116.71875 314.476562 C 115.761719 314.246094 114.757812 314.425781 113.9375 314.960938 C 113.113281 315.5 112.546875 316.351562 112.371094 317.320312 C 112.351562 317.449219 111.71875 320.898438 111.714844 325.210938 C 111.730469 328.449219 112.023438 332.179688 113.539062 335.605469 L 116.808594 334.132812 L 116.808594 330.546875 L 45.886719 330.546875 L 45.886719 334.132812 L 49.171875 335.558594 C 49.203125 335.488281 51.128906 331.039062 53.070312 324.96875 C 54.039062 321.929688 55.011719 318.480469 55.757812 314.945312 C 56.496094 311.40625 57.011719 307.777344 57.011719 304.316406 C 57.007812 301.710938 56.726562 299.191406 55.921875 296.839844 C 53.789062 290.679688 50.277344 284.261719 46.863281 278.402344 C 45.15625 275.480469 43.472656 272.699219 41.996094 270.214844 C 40.523438 267.734375 39.257812 265.53125 38.425781 263.828125 C 32.054688 250.941406 28.691406 237.355469 28.695312 224.695312 C 28.695312 215.546875 30.4375 206.894531 34.015625 199.257812 C 37.589844 191.617188 42.976562 184.976562 50.433594 179.757812 C 68.429688 167.1875 85.113281 162.625 99.59375 162.613281 C 111.820312 162.613281 122.527344 165.902344 131.058594 170.605469 C 139.585938 175.296875 145.910156 181.464844 149.257812 186.878906 L 149.425781 187.125 L 152.304688 184.992188 L 155.34375 183.097656 C 151.179688 176.40625 144.03125 169.589844 134.515625 164.328125 C 125.011719 159.085938 113.121094 155.445312 99.59375 155.445312 C 83.578125 155.4375 65.351562 160.574219 46.332031 173.875 C 37.84375 179.804688 31.589844 187.507812 27.523438 196.214844 C 23.449219 204.929688 21.535156 214.640625 21.535156 224.695312 C 21.535156 238.621094 25.199219 253.226562 32 267.011719 C 33.007812 269.039062 34.332031 271.339844 35.832031 273.871094 C 38.089844 277.667969 40.730469 281.976562 43.152344 286.359375 C 45.578125 290.738281 47.78125 295.199219 49.148438 299.175781 C 49.601562 300.472656 49.851562 302.261719 49.847656 304.316406 C 49.851562 307.054688 49.421875 310.257812 48.746094 313.472656 C 47.738281 318.300781 46.191406 323.148438 44.898438 326.761719 C 44.25 328.570312 43.675781 330.070312 43.253906 331.113281 C 43.046875 331.628906 42.878906 332.039062 42.769531 332.304688 C 42.710938 332.445312 42.667969 332.546875 42.640625 332.613281 L 42.605469 332.6875 L 42.601562 332.703125 C 42.117188 333.820312 42.226562 335.085938 42.890625 336.097656 C 43.558594 337.113281 44.675781 337.714844 45.886719 337.714844 L 116.808594 337.714844 C 118.027344 337.714844 119.152344 337.105469 119.8125 336.074219 C 120.480469 335.050781 120.574219 333.773438 120.070312 332.660156 C 119.238281 330.855469 118.863281 327.90625 118.878906 325.210938 C 118.878906 323.414062 119.019531 321.722656 119.152344 320.507812 C 119.226562 319.894531 119.292969 319.410156 119.34375 319.074219 C 119.367188 318.910156 119.386719 318.78125 119.398438 318.703125 L 119.414062 318.617188 L 119.421875 318.601562 L 118.761719 318.484375 L 119.421875 318.601562 L 118.761719 318.484375 L 119.421875 318.601562 L 115.894531 317.957031 L 115.066406 321.449219 C 123.886719 323.542969 131.304688 324.164062 137.011719 324.164062 C 145.246094 324.164062 149.925781 322.863281 150.199219 322.785156 L 149.214844 319.339844 L 149.382812 322.921875 C 151.09375 322.847656 152.726562 322.152344 153.949219 321.132812 C 155.800781 319.59375 156.886719 317.519531 157.609375 315.242188 C 158.324219 312.953125 158.65625 310.371094 158.660156 307.585938 C 158.65625 307.265625 158.65625 306.941406 158.644531 306.613281 L 158.644531 306.601562 C 158.582031 304.574219 158.546875 302.992188 158.546875 301.777344 C 158.546875 300.765625 158.578125 300.007812 158.628906 299.480469 C 158.667969 299.089844 158.714844 298.832031 158.761719 298.671875 C 158.835938 298.417969 158.863281 298.375 158.992188 298.167969 C 159.113281 297.976562 159.394531 297.632812 159.875 297.117188 L 159.878906 297.113281 C 160.671875 296.25 161.5 295.316406 162.242188 294.21875 C 162.976562 293.121094 163.667969 291.832031 163.917969 290.191406 L 163.921875 290.15625 C 163.976562 289.722656 164.011719 289.265625 164.011719 288.785156 C 164.003906 287.558594 163.816406 286.253906 163.324219 284.914062 C 162.835938 283.59375 162.023438 282.214844 160.703125 281.101562 L 160.699219 281.097656 C 159.65625 280.226562 158.546875 279.449219 157.671875 278.855469 C 156.792969 278.269531 156.152344 277.882812 156.125 277.859375 L 154.257812 280.917969 L 157.730469 281.785156 L 154.660156 281.019531 L 156.929688 283.242188 C 157.148438 283.011719 157.523438 282.585938 157.730469 281.785156 L 154.660156 281.019531 L 156.929688 283.242188 L 155.21875 281.566406 L 156.496094 283.597656 C 156.574219 283.550781 156.707031 283.464844 156.929688 283.242188 L 155.21875 281.566406 L 156.496094 283.597656 L 155.839844 282.550781 L 156.425781 283.640625 L 156.496094 283.597656 L 155.839844 282.550781 L 156.425781 283.640625 L 156.191406 283.214844 L 156.417969 283.648438 L 156.425781 283.640625 L 156.191406 283.214844 L 156.417969 283.648438 L 156.484375 283.617188 C 156.675781 283.539062 157.136719 283.386719 157.664062 283.253906 C 158.453125 283.046875 159.398438 282.855469 160.128906 282.71875 C 160.492188 282.648438 160.796875 282.597656 161.015625 282.558594 L 161.269531 282.519531 L 161.347656 282.507812 C 161.839844 282.429688 162.320312 282.25 162.742188 281.976562 C 163.878906 281.242188 164.714844 280.324219 165.34375 279.425781 C 166.285156 278.078125 166.792969 276.75 167.113281 275.738281 C 167.425781 274.722656 167.53125 274.007812 167.554688 273.871094 C 167.707031 272.824219 167.390625 271.765625 166.6875 270.96875 C 166.613281 270.902344 166.363281 270.515625 166.160156 269.972656 C 165.835938 269.160156 165.585938 268.046875 165.445312 267.183594 C 165.371094 266.753906 165.320312 266.378906 165.296875 266.125 L 165.265625 265.839844 L 165.257812 265.773438 L 161.6875 266.03125 L 161.980469 269.605469 C 162.070312 269.59375 168.125 269.105469 173.828125 267.816406 C 174.957031 267.558594 176.011719 267.050781 176.863281 266.363281 C 178.144531 265.324219 178.921875 263.988281 179.359375 262.714844 C 179.800781 261.433594 179.945312 260.179688 179.945312 259.003906 C 179.945312 257.875 179.8125 256.824219 179.574219 255.84375 C 179.457031 255.355469 179.3125 254.886719 179.128906 254.425781 C 178.945312 253.960938 178.726562 253.515625 178.40625 253.039062 C 176.4375 250.136719 173.789062 246.574219 171.359375 242.867188 C 168.925781 239.175781 166.730469 235.3125 165.703125 232.1875 C 165.074219 230.351562 164.792969 227.667969 164.800781 225.003906 C 164.800781 222.335938 165.058594 219.664062 165.316406 217.695312 C 165.445312 216.707031 165.574219 215.894531 165.667969 215.335938 C 165.710938 215.054688 165.75 214.835938 165.78125 214.695312 L 165.808594 214.539062 L 165.820312 214.5 C 165.902344 214.082031 165.910156 213.679688 165.847656 213.257812 C 162.8125 193.285156 155.449219 183.210938 155.175781 182.851562 L 152.304688 184.992188 L 155.34375 183.097656 L 152.304688 184.992188 " fill-opacity="1" fill-rule="nonzero"/></g><path fill="#419f00" d="M 294.808594 108.378906 C 294.808594 77.507812 260.921875 52.496094 219.105469 52.496094 C 177.296875 52.496094 143.402344 77.507812 143.402344 108.378906 C 143.402344 139.242188 177.296875 164.257812 219.105469 164.257812 C 219.578125 164.257812 220.035156 164.253906 220.496094 164.25 C 224.441406 169.714844 231.308594 176.433594 243.183594 182.148438 C 243.183594 182.148438 239.023438 172.773438 236.914062 162.703125 C 270.132812 156.789062 294.808594 134.710938 294.808594 108.378906 " fill-opacity="1" fill-rule="nonzero"/><g clip-path="url(#id3)"><path fill="#040606" d="M 294.808594 108.378906 L 298.390625 108.378906 C 298.394531 100 296.085938 92.015625 291.972656 84.839844 C 285.792969 74.074219 275.640625 65.121094 263.03125 58.832031 C 250.421875 52.542969 235.320312 48.914062 219.105469 48.914062 C 197.484375 48.917969 177.851562 55.351562 163.453125 65.976562 C 156.25 71.292969 150.355469 77.664062 146.246094 84.839844 C 142.132812 92.015625 139.816406 100 139.820312 108.378906 C 139.816406 116.757812 142.132812 124.742188 146.246094 131.910156 C 152.421875 142.675781 162.574219 151.636719 175.183594 157.925781 C 187.796875 164.214844 202.890625 167.84375 219.105469 167.84375 C 219.605469 167.84375 220.082031 167.839844 220.539062 167.832031 L 220.496094 164.25 L 217.59375 166.347656 C 221.871094 172.285156 229.246094 179.429688 241.632812 185.375 C 242.988281 186.027344 244.601562 185.765625 245.679688 184.71875 C 246.753906 183.671875 247.066406 182.0625 246.457031 180.691406 L 246.453125 180.675781 C 246.25 180.242188 242.359375 171.269531 240.417969 161.96875 L 236.914062 162.703125 L 237.542969 166.230469 C 254.753906 163.160156 269.835938 155.914062 280.75 145.828125 C 286.199219 140.78125 290.609375 135.019531 293.660156 128.703125 C 296.710938 122.390625 298.394531 115.523438 298.390625 108.378906 L 291.226562 108.378906 C 291.226562 114.398438 289.828125 120.167969 287.214844 125.582031 C 283.289062 133.703125 276.601562 141.039062 267.84375 146.875 C 259.089844 152.710938 248.289062 157.039062 236.289062 159.175781 C 235.332031 159.34375 234.484375 159.890625 233.945312 160.699219 C 233.402344 161.5 233.210938 162.488281 233.40625 163.4375 C 235.628906 173.976562 239.859375 183.46875 239.910156 183.597656 L 243.183594 182.148438 L 244.734375 178.914062 C 233.363281 173.445312 227.007812 167.136719 223.398438 162.148438 C 222.722656 161.207031 221.613281 160.648438 220.457031 160.664062 C 219.992188 160.667969 219.542969 160.675781 219.105469 160.675781 C 198.914062 160.679688 180.695312 154.609375 167.699219 145.011719 C 161.203125 140.210938 156.007812 134.542969 152.460938 128.347656 C 148.910156 122.144531 146.984375 115.433594 146.984375 108.378906 C 146.984375 101.320312 148.910156 94.605469 152.460938 88.40625 C 157.777344 79.117188 166.816406 71.007812 178.378906 65.242188 C 189.929688 59.480469 203.960938 56.074219 219.105469 56.082031 C 239.300781 56.070312 257.515625 62.140625 270.511719 71.746094 C 277.011719 76.546875 282.203125 82.214844 285.753906 88.40625 C 289.300781 94.605469 291.226562 101.320312 291.226562 108.378906 L 294.808594 108.378906 " fill-opacity="1" fill-rule="nonzero"/></g><path fill="#7c4188" d="M 100.214844 138.832031 C 100.214844 117.074219 124.113281 99.441406 153.585938 99.441406 C 183.050781 99.441406 206.945312 117.074219 206.945312 138.832031 C 206.945312 160.589844 183.050781 178.226562 153.585938 178.226562 C 153.253906 178.226562 152.925781 178.222656 152.597656 178.214844 C 149.824219 182.070312 144.980469 186.808594 136.609375 190.828125 C 136.609375 190.828125 139.535156 184.230469 141.023438 177.128906 C 117.613281 172.957031 100.214844 157.398438 100.214844 138.832031 " fill-opacity="1" fill-rule="nonzero"/><path fill="#040606" d="M 100.214844 138.832031 L 103.796875 138.832031 C 103.800781 134.054688 105.09375 129.507812 107.515625 125.28125 C 111.136719 118.945312 117.34375 113.355469 125.34375 109.375 C 133.328125 105.386719 143.0625 103.023438 153.585938 103.023438 C 167.605469 103.019531 180.238281 107.242188 189.1875 113.859375 C 193.667969 117.164062 197.222656 121.058594 199.640625 125.28125 C 202.0625 129.507812 203.355469 134.054688 203.363281 138.832031 C 203.355469 143.609375 202.0625 148.160156 199.640625 152.386719 C 196.019531 158.722656 189.8125 164.308594 181.820312 168.292969 C 173.832031 172.28125 164.09375 174.644531 153.585938 174.644531 C 153.292969 174.644531 152.972656 174.636719 152.628906 174.632812 C 151.46875 174.625 150.371094 175.179688 149.695312 176.121094 C 147.253906 179.5 142.921875 183.816406 135.058594 187.597656 L 136.609375 190.828125 L 139.882812 192.285156 C 139.933594 192.160156 142.9375 185.429688 144.535156 177.863281 C 144.730469 176.917969 144.539062 175.929688 143.996094 175.125 C 143.453125 174.316406 142.609375 173.769531 141.65625 173.601562 C 130.554688 171.628906 120.960938 166.941406 114.273438 160.75 C 110.925781 157.652344 108.300781 154.183594 106.519531 150.5 C 104.742188 146.8125 103.796875 142.910156 103.796875 138.832031 L 96.632812 138.832031 C 96.632812 144.035156 97.855469 149.042969 100.074219 153.617188 C 103.398438 160.5 108.90625 166.433594 115.839844 171.058594 C 122.78125 175.683594 131.164062 179.011719 140.398438 180.65625 L 141.023438 177.128906 L 137.523438 176.394531 C 136.828125 179.699219 135.769531 182.992188 134.890625 185.421875 C 134.449219 186.640625 134.058594 187.640625 133.773438 188.335938 C 133.632812 188.675781 133.519531 188.945312 133.441406 189.125 L 133.359375 189.320312 L 133.339844 189.367188 L 133.335938 189.378906 C 132.726562 190.75 133.03125 192.355469 134.113281 193.40625 C 135.191406 194.453125 136.804688 194.714844 138.160156 194.058594 C 147.035156 189.804688 152.390625 184.640625 155.503906 180.316406 L 152.597656 178.214844 L 152.570312 181.800781 C 152.875 181.804688 153.214844 181.8125 153.585938 181.8125 C 169.03125 181.804688 183.078125 177.214844 193.4375 169.574219 C 198.617188 165.753906 202.875 161.15625 205.859375 155.949219 C 208.839844 150.75 210.527344 144.933594 210.527344 138.832031 C 210.527344 132.734375 208.839844 126.914062 205.859375 121.71875 C 201.375 113.910156 194.054688 107.472656 185.015625 102.957031 C 175.964844 98.449219 165.167969 95.855469 153.585938 95.855469 C 138.132812 95.863281 124.078125 100.453125 113.71875 108.09375 C 108.542969 111.914062 104.28125 116.511719 101.300781 121.714844 C 98.316406 126.914062 96.625 132.734375 96.632812 138.832031 L 100.214844 138.832031 " fill-opacity="1" fill-rule="nonzero"/><path fill="#040606" d="M 137.195312 140.417969 C 137.195312 143.023438 135.085938 145.132812 132.480469 145.132812 C 129.875 145.132812 127.765625 143.023438 127.765625 140.417969 C 127.765625 137.8125 129.875 135.699219 132.480469 135.699219 C 135.085938 135.699219 137.195312 137.8125 137.195312 140.417969 " fill-opacity="1" fill-rule="nonzero"/><path fill="#040606" d="M 158.292969 140.417969 C 158.292969 143.023438 156.179688 145.132812 153.585938 145.132812 C 150.976562 145.132812 148.867188 143.023438 148.867188 140.417969 C 148.867188 137.8125 150.976562 135.699219 153.585938 135.699219 C 156.179688 135.699219 158.292969 137.8125 158.292969 140.417969 " fill-opacity="1" fill-rule="nonzero"/><path fill="#040606" d="M 179.398438 140.417969 C 179.398438 143.023438 177.285156 145.132812 174.679688 145.132812 C 172.078125 145.132812 169.964844 143.023438 169.964844 140.417969 C 169.964844 137.8125 172.078125 135.699219 174.679688 135.699219 C 177.285156 135.699219 179.398438 137.8125 179.398438 140.417969 " fill-opacity="1" fill-rule="nonzero"/></svg>