<svg xmlns="http://www.w3.org/2000/svg" xmlns:xlink="http://www.w3.org/1999/xlink" width="500" zoomAndPan="magnify" viewBox="0 0 375 374.999991" height="500" preserveAspectRatio="xMidYMid meet" version="1.0"><defs><clipPath id="id1"><path d="M 29.539062 29.539062 L 348.289062 29.539062 L 348.289062 348.289062 L 29.539062 348.289062 Z M 29.539062 29.539062 " clip-rule="nonzero"/></clipPath></defs><rect x="-37.5" width="450" fill="#ffffff" y="-37.499999" height="449.999989" fill-opacity="1"/><rect x="-37.5" width="450" fill="#ffffff" y="-37.499999" height="449.999989" fill-opacity="1"/><rect x="-37.5" width="450" fill="#ffffff" y="-37.499999" height="449.999989" fill-opacity="1"/><g clip-path="url(#id1)"><path fill="#783884" d="M 348.289062 188.914062 C 348.289062 191.523438 348.222656 194.128906 348.09375 196.734375 C 347.96875 199.339844 347.777344 201.9375 347.519531 204.535156 C 347.265625 207.128906 346.945312 209.71875 346.5625 212.296875 C 346.179688 214.878906 345.734375 217.449219 345.226562 220.003906 C 344.714844 222.5625 344.144531 225.109375 343.511719 227.636719 C 342.878906 230.167969 342.183594 232.679688 341.425781 235.175781 C 340.667969 237.671875 339.851562 240.148438 338.972656 242.605469 C 338.09375 245.0625 337.152344 247.492188 336.15625 249.902344 C 335.15625 252.3125 334.101562 254.695312 332.984375 257.054688 C 331.871094 259.414062 330.699219 261.742188 329.46875 264.042969 C 328.238281 266.34375 326.953125 268.609375 325.613281 270.847656 C 324.273438 273.085938 322.878906 275.289062 321.429688 277.457031 C 319.980469 279.625 318.476562 281.757812 316.921875 283.851562 C 315.371094 285.949219 313.765625 288.003906 312.109375 290.019531 C 310.457031 292.035156 308.753906 294.011719 307 295.941406 C 305.25 297.875 303.453125 299.765625 301.609375 301.609375 C 299.761719 303.453125 297.875 305.25 295.941406 307.003906 C 294.007812 308.753906 292.035156 310.457031 290.019531 312.113281 C 288.003906 313.765625 285.945312 315.371094 283.851562 316.925781 C 281.757812 318.476562 279.625 319.980469 277.457031 321.429688 C 275.289062 322.878906 273.085938 324.273438 270.847656 325.613281 C 268.609375 326.953125 266.339844 328.238281 264.042969 329.46875 C 261.742188 330.699219 259.410156 331.871094 257.054688 332.988281 C 254.695312 334.101562 252.3125 335.160156 249.902344 336.15625 C 247.492188 337.15625 245.058594 338.09375 242.605469 338.972656 C 240.148438 339.851562 237.671875 340.667969 235.175781 341.425781 C 232.679688 342.183594 230.167969 342.878906 227.636719 343.511719 C 225.109375 344.144531 222.5625 344.71875 220.003906 345.226562 C 217.445312 345.734375 214.878906 346.179688 212.296875 346.5625 C 209.71875 346.945312 207.128906 347.265625 204.535156 347.519531 C 201.9375 347.777344 199.339844 347.96875 196.734375 348.097656 C 194.128906 348.222656 191.519531 348.289062 188.914062 348.289062 C 186.304688 348.289062 183.699219 348.222656 181.09375 348.097656 C 178.488281 347.96875 175.886719 347.777344 173.292969 347.519531 C 170.695312 347.265625 168.109375 346.945312 165.527344 346.5625 C 162.949219 346.179688 160.378906 345.734375 157.820312 345.226562 C 155.261719 344.71875 152.71875 344.144531 150.1875 343.511719 C 147.65625 342.878906 145.144531 342.183594 142.648438 341.425781 C 140.152344 340.667969 137.675781 339.851562 135.222656 338.972656 C 132.765625 338.09375 130.332031 337.15625 127.921875 336.15625 C 125.511719 335.160156 123.128906 334.101562 120.769531 332.988281 C 118.414062 331.871094 116.085938 330.699219 113.785156 329.46875 C 111.484375 328.238281 109.214844 326.953125 106.976562 325.613281 C 104.742188 324.273438 102.539062 322.878906 100.367188 321.429688 C 98.199219 319.980469 96.066406 318.476562 93.972656 316.925781 C 91.878906 315.371094 89.824219 313.765625 87.804688 312.113281 C 85.789062 310.457031 83.816406 308.753906 81.882812 307.003906 C 79.949219 305.25 78.0625 303.453125 76.21875 301.609375 C 74.375 299.765625 72.574219 297.875 70.824219 295.941406 C 69.070312 294.011719 67.367188 292.035156 65.714844 290.019531 C 64.058594 288.003906 62.457031 285.949219 60.902344 283.851562 C 59.347656 281.757812 57.847656 279.625 56.398438 277.457031 C 54.949219 275.289062 53.554688 273.085938 52.210938 270.847656 C 50.871094 268.609375 49.585938 266.34375 48.355469 264.042969 C 47.125 261.742188 45.953125 259.414062 44.839844 257.054688 C 43.722656 254.695312 42.667969 252.3125 41.667969 249.902344 C 40.671875 247.492188 39.734375 245.0625 38.855469 242.605469 C 37.976562 240.148438 37.15625 237.671875 36.398438 235.175781 C 35.644531 232.679688 34.949219 230.167969 34.3125 227.636719 C 33.679688 225.109375 33.109375 222.5625 32.601562 220.003906 C 32.089844 217.449219 31.644531 214.878906 31.261719 212.296875 C 30.878906 209.71875 30.5625 207.128906 30.304688 204.535156 C 30.050781 201.9375 29.859375 199.339844 29.730469 196.734375 C 29.601562 194.128906 29.539062 191.523438 29.539062 188.914062 C 29.539062 186.304688 29.601562 183.699219 29.730469 181.09375 C 29.859375 178.488281 30.050781 175.886719 30.304688 173.292969 C 30.5625 170.695312 30.878906 168.109375 31.261719 165.527344 C 31.644531 162.949219 32.089844 160.378906 32.601562 157.820312 C 33.109375 155.261719 33.679688 152.71875 34.3125 150.1875 C 34.949219 147.65625 35.644531 145.144531 36.398438 142.648438 C 37.15625 140.152344 37.976562 137.675781 38.855469 135.222656 C 39.734375 132.765625 40.671875 130.332031 41.667969 127.921875 C 42.667969 125.511719 43.722656 123.128906 44.839844 120.773438 C 45.953125 118.414062 47.125 116.085938 48.355469 113.785156 C 49.585938 111.484375 50.871094 109.214844 52.210938 106.976562 C 53.554688 104.742188 54.949219 102.539062 56.398438 100.371094 C 57.847656 98.199219 59.347656 96.070312 60.902344 93.972656 C 62.457031 91.878906 64.058594 89.824219 65.714844 87.808594 C 67.367188 85.789062 69.070312 83.816406 70.824219 81.882812 C 72.574219 79.949219 74.375 78.0625 76.21875 76.21875 C 78.0625 74.375 79.949219 72.574219 81.882812 70.824219 C 83.816406 69.074219 85.789062 67.371094 87.804688 65.714844 C 89.824219 64.058594 91.878906 62.457031 93.972656 60.902344 C 96.066406 59.347656 98.199219 57.847656 100.367188 56.398438 C 102.539062 54.949219 104.742188 53.554688 106.976562 52.210938 C 109.214844 50.871094 111.484375 49.585938 113.785156 48.355469 C 116.085938 47.128906 118.414062 45.957031 120.769531 44.839844 C 123.128906 43.726562 125.511719 42.667969 127.921875 41.671875 C 130.332031 40.671875 132.765625 39.734375 135.222656 38.855469 C 137.675781 37.976562 140.152344 37.15625 142.648438 36.402344 C 145.144531 35.644531 147.65625 34.949219 150.1875 34.316406 C 152.71875 33.679688 155.261719 33.109375 157.820312 32.601562 C 160.378906 32.089844 162.949219 31.644531 165.527344 31.261719 C 168.109375 30.878906 170.695312 30.5625 173.292969 30.304688 C 175.886719 30.050781 178.488281 29.859375 181.09375 29.730469 C 183.699219 29.601562 186.304688 29.539062 188.914062 29.539062 C 191.519531 29.539062 194.128906 29.601562 196.734375 29.730469 C 199.339844 29.859375 201.9375 30.050781 204.535156 30.304688 C 207.128906 30.5625 209.71875 30.878906 212.296875 31.261719 C 214.878906 31.644531 217.445312 32.089844 220.003906 32.601562 C 222.5625 33.109375 225.109375 33.679688 227.636719 34.316406 C 230.167969 34.949219 232.679688 35.644531 235.175781 36.402344 C 237.671875 37.15625 240.148438 37.976562 242.605469 38.855469 C 245.058594 39.734375 247.492188 40.671875 249.902344 41.671875 C 252.3125 42.667969 254.695312 43.726562 257.054688 44.839844 C 259.410156 45.957031 261.742188 47.128906 264.042969 48.355469 C 266.339844 49.585938 268.609375 50.871094 270.847656 52.210938 C 273.085938 53.554688 275.289062 54.949219 277.457031 56.398438 C 279.625 57.847656 281.757812 59.347656 283.851562 60.902344 C 285.945312 62.457031 288.003906 64.058594 290.019531 65.714844 C 292.035156 67.371094 294.007812 69.074219 295.941406 70.824219 C 297.875 72.574219 299.761719 74.375 301.609375 76.21875 C 303.453125 78.0625 305.25 79.949219 307 81.882812 C 308.753906 83.816406 310.457031 85.789062 312.109375 87.808594 C 313.765625 89.824219 315.371094 91.878906 316.921875 93.972656 C 318.476562 96.070312 319.980469 98.199219 321.429688 100.371094 C 322.878906 102.539062 324.273438 104.742188 325.613281 106.976562 C 326.953125 109.214844 328.238281 111.484375 329.46875 113.785156 C 330.699219 116.085938 331.871094 118.414062 332.984375 120.773438 C 334.101562 123.128906 335.15625 125.511719 336.15625 127.921875 C 337.152344 130.332031 338.09375 132.765625 338.972656 135.222656 C 339.851562 137.675781 340.667969 140.152344 341.425781 142.648438 C 342.183594 145.144531 342.878906 147.65625 343.511719 150.1875 C 344.144531 152.71875 344.714844 155.261719 345.226562 157.820312 C 345.734375 160.378906 346.179688 162.949219 346.5625 165.527344 C 346.945312 168.109375 347.265625 170.695312 347.519531 173.292969 C 347.777344 175.886719 347.96875 178.488281 348.09375 181.09375 C 348.222656 183.699219 348.289062 186.304688 348.289062 188.914062 Z M 348.289062 188.914062 " fill-opacity="1" fill-rule="nonzero"/></g><path fill="#ffffff" d="M 149.386719 298.816406 L 62.472656 211.910156 L 97.101562 177.277344 L 149.386719 229.554688 L 280.699219 98.230469 L 315.339844 132.855469 Z M 149.386719 298.816406 " fill-opacity="1" fill-rule="nonzero"/></svg>