<svg xmlns="http://www.w3.org/2000/svg" xmlns:xlink="http://www.w3.org/1999/xlink" width="500" zoomAndPan="magnify" viewBox="0 0 375 374.999991" height="500" preserveAspectRatio="xMidYMid meet" version="1.0"><defs><clipPath id="id1"><path d="M 37.5 37.5 L 328.5 37.5 L 328.5 328.5 L 37.5 328.5 Z M 37.5 37.5 " clip-rule="nonzero"/></clipPath></defs><rect x="-37.5" width="450" fill="#ffffff" y="-37.499999" height="449.999989" fill-opacity="1"/><rect x="-37.5" width="450" fill="#ffffff" y="-37.499999" height="449.999989" fill-opacity="1"/><rect x="-37.5" width="450" fill="#ffffff" y="-37.499999" height="449.999989" fill-opacity="1"/><g clip-path="url(#id1)"><path fill="#409f00" d="M 328.5 183 C 328.5 185.382812 328.441406 187.761719 328.324219 190.140625 C 328.207031 192.519531 328.03125 194.890625 327.800781 197.261719 C 327.566406 199.632812 327.273438 201.996094 326.925781 204.351562 C 326.574219 206.707031 326.167969 209.050781 325.703125 211.386719 C 325.238281 213.722656 324.71875 216.042969 324.140625 218.355469 C 323.5625 220.664062 322.925781 222.957031 322.234375 225.238281 C 321.542969 227.515625 320.796875 229.777344 319.996094 232.019531 C 319.191406 234.261719 318.335938 236.480469 317.425781 238.679688 C 316.511719 240.878906 315.546875 243.058594 314.53125 245.210938 C 313.511719 247.363281 312.441406 249.488281 311.320312 251.589844 C 310.195312 253.6875 309.023438 255.761719 307.800781 257.800781 C 306.574219 259.84375 305.300781 261.855469 303.980469 263.835938 C 302.65625 265.816406 301.285156 267.761719 299.867188 269.675781 C 298.449219 271.585938 296.984375 273.464844 295.472656 275.304688 C 293.960938 277.144531 292.40625 278.949219 290.808594 280.710938 C 289.210938 282.476562 287.566406 284.199219 285.882812 285.882812 C 284.199219 287.566406 282.476562 289.210938 280.710938 290.808594 C 278.949219 292.40625 277.144531 293.960938 275.304688 295.472656 C 273.464844 296.984375 271.585938 298.449219 269.675781 299.867188 C 267.761719 301.285156 265.816406 302.65625 263.835938 303.980469 C 261.855469 305.300781 259.84375 306.574219 257.800781 307.800781 C 255.757812 309.023438 253.6875 310.199219 251.589844 311.320312 C 249.488281 312.441406 247.363281 313.511719 245.210938 314.53125 C 243.054688 315.550781 240.878906 316.511719 238.679688 317.425781 C 236.480469 318.335938 234.257812 319.191406 232.015625 319.996094 C 229.777344 320.796875 227.515625 321.542969 225.238281 322.234375 C 222.957031 322.925781 220.664062 323.5625 218.355469 324.140625 C 216.042969 324.71875 213.722656 325.238281 211.386719 325.703125 C 209.050781 326.167969 206.703125 326.578125 204.347656 326.925781 C 201.992188 327.273438 199.632812 327.566406 197.261719 327.800781 C 194.890625 328.035156 192.519531 328.207031 190.140625 328.324219 C 187.761719 328.441406 185.382812 328.5 183 328.5 C 180.617188 328.5 178.238281 328.441406 175.859375 328.324219 C 173.480469 328.207031 171.109375 328.035156 168.738281 327.800781 C 166.367188 327.566406 164.007812 327.273438 161.652344 326.925781 C 159.296875 326.578125 156.949219 326.167969 154.613281 325.703125 C 152.277344 325.238281 149.957031 324.71875 147.644531 324.140625 C 145.335938 323.5625 143.042969 322.925781 140.761719 322.234375 C 138.484375 321.542969 136.222656 320.796875 133.984375 319.996094 C 131.742188 319.191406 129.519531 318.335938 127.320312 317.425781 C 125.121094 316.511719 122.941406 315.550781 120.789062 314.53125 C 118.636719 313.511719 116.511719 312.441406 114.410156 311.320312 C 112.3125 310.199219 110.242188 309.023438 108.199219 307.800781 C 106.15625 306.574219 104.144531 305.300781 102.164062 303.980469 C 100.183594 302.65625 98.238281 301.285156 96.324219 299.867188 C 94.414062 298.449219 92.535156 296.984375 90.695312 295.472656 C 88.855469 293.960938 87.050781 292.40625 85.289062 290.808594 C 83.523438 289.210938 81.800781 287.566406 80.117188 285.882812 C 78.433594 284.199219 76.789062 282.476562 75.191406 280.710938 C 73.59375 278.949219 72.039062 277.144531 70.527344 275.304688 C 69.015625 273.464844 67.550781 271.585938 66.132812 269.675781 C 64.714844 267.761719 63.34375 265.816406 62.019531 263.835938 C 60.699219 261.855469 59.425781 259.84375 58.199219 257.800781 C 56.976562 255.761719 55.804688 253.6875 54.679688 251.589844 C 53.558594 249.488281 52.488281 247.363281 51.46875 245.210938 C 50.453125 243.058594 49.488281 240.878906 48.574219 238.679688 C 47.664062 236.480469 46.808594 234.261719 46.003906 232.019531 C 45.203125 229.777344 44.457031 227.515625 43.765625 225.238281 C 43.074219 222.957031 42.4375 220.664062 41.859375 218.355469 C 41.28125 216.042969 40.761719 213.722656 40.296875 211.386719 C 39.832031 209.050781 39.425781 206.707031 39.074219 204.351562 C 38.726562 201.996094 38.433594 199.632812 38.199219 197.261719 C 37.96875 194.890625 37.792969 192.519531 37.675781 190.140625 C 37.558594 187.761719 37.5 185.382812 37.5 183 C 37.5 180.621094 37.558594 178.238281 37.675781 175.859375 C 37.792969 173.484375 37.96875 171.109375 38.199219 168.738281 C 38.433594 166.371094 38.726562 164.007812 39.074219 161.652344 C 39.425781 159.296875 39.832031 156.949219 40.296875 154.613281 C 40.761719 152.28125 41.28125 149.957031 41.859375 147.648438 C 42.4375 145.335938 43.074219 143.042969 43.765625 140.765625 C 44.457031 138.484375 45.203125 136.226562 46.003906 133.984375 C 46.808594 131.742188 47.664062 129.519531 48.574219 127.320312 C 49.488281 125.121094 50.453125 122.945312 51.46875 120.792969 C 52.488281 118.636719 53.558594 116.511719 54.679688 114.414062 C 55.804688 112.3125 56.976562 110.242188 58.199219 108.199219 C 59.425781 106.15625 60.699219 104.144531 62.019531 102.164062 C 63.34375 100.183594 64.714844 98.238281 66.132812 96.328125 C 67.550781 94.414062 69.015625 92.535156 70.527344 90.695312 C 72.039062 88.855469 73.59375 87.054688 75.191406 85.289062 C 76.789062 83.523438 78.433594 81.800781 80.117188 80.117188 C 81.800781 78.433594 83.523438 76.792969 85.289062 75.191406 C 87.050781 73.59375 88.855469 72.039062 90.695312 70.527344 C 92.535156 69.015625 94.414062 67.550781 96.324219 66.132812 C 98.238281 64.714844 100.183594 63.34375 102.164062 62.023438 C 104.144531 60.699219 106.15625 59.425781 108.199219 58.199219 C 110.242188 56.976562 112.3125 55.804688 114.410156 54.679688 C 116.511719 53.558594 118.636719 52.488281 120.789062 51.46875 C 122.941406 50.453125 125.121094 49.488281 127.320312 48.574219 C 129.519531 47.664062 131.742188 46.808594 133.984375 46.003906 C 136.222656 45.203125 138.484375 44.457031 140.761719 43.765625 C 143.042969 43.074219 145.335938 42.441406 147.644531 41.859375 C 149.957031 41.28125 152.277344 40.761719 154.613281 40.296875 C 156.949219 39.832031 159.296875 39.425781 161.652344 39.074219 C 164.007812 38.726562 166.367188 38.433594 168.738281 38.199219 C 171.109375 37.96875 173.480469 37.792969 175.859375 37.675781 C 178.238281 37.558594 180.617188 37.5 183 37.5 C 185.382812 37.5 187.761719 37.558594 190.140625 37.675781 C 192.519531 37.792969 194.890625 37.96875 197.261719 38.199219 C 199.632812 38.433594 201.992188 38.726562 204.347656 39.074219 C 206.703125 39.425781 209.050781 39.832031 211.386719 40.296875 C 213.722656 40.761719 216.042969 41.28125 218.355469 41.859375 C 220.664062 42.441406 222.957031 43.074219 225.238281 43.765625 C 227.515625 44.457031 229.777344 45.203125 232.015625 46.003906 C 234.257812 46.808594 236.480469 47.664062 238.679688 48.574219 C 240.878906 49.488281 243.054688 50.453125 245.210938 51.46875 C 247.363281 52.488281 249.488281 53.558594 251.589844 54.679688 C 253.6875 55.804688 255.757812 56.976562 257.800781 58.199219 C 259.84375 59.425781 261.855469 60.699219 263.835938 62.023438 C 265.816406 63.34375 267.761719 64.714844 269.675781 66.132812 C 271.585938 67.550781 273.464844 69.015625 275.304688 70.527344 C 277.144531 72.039062 278.949219 73.59375 280.710938 75.191406 C 282.476562 76.792969 284.199219 78.433594 285.882812 80.117188 C 287.566406 81.800781 289.210938 83.523438 290.808594 85.289062 C 292.40625 87.054688 293.960938 88.855469 295.472656 90.695312 C 296.984375 92.535156 298.449219 94.414062 299.867188 96.328125 C 301.285156 98.238281 302.65625 100.183594 303.980469 102.164062 C 305.300781 104.144531 306.574219 106.15625 307.800781 108.199219 C 309.023438 110.242188 310.195312 112.3125 311.320312 114.414062 C 312.441406 116.511719 313.511719 118.636719 314.53125 120.792969 C 315.546875 122.945312 316.511719 125.121094 317.425781 127.320312 C 318.335938 129.519531 319.191406 131.742188 319.996094 133.984375 C 320.796875 136.226562 321.542969 138.484375 322.234375 140.765625 C 322.925781 143.042969 323.5625 145.335938 324.140625 147.648438 C 324.71875 149.957031 325.238281 152.28125 325.703125 154.613281 C 326.167969 156.949219 326.574219 159.296875 326.925781 161.652344 C 327.273438 164.007812 327.566406 166.371094 327.800781 168.738281 C 328.03125 171.109375 328.207031 173.484375 328.324219 175.859375 C 328.441406 178.238281 328.5 180.621094 328.5 183 Z M 328.5 183 " fill-opacity="1" fill-rule="nonzero"/></g><path fill="#ffffff" d="M 146.914062 283.335938 L 67.570312 203.996094 L 99.183594 172.378906 L 146.914062 220.101562 L 266.796875 100.210938 L 298.421875 131.824219 Z M 146.914062 283.335938 " fill-opacity="1" fill-rule="nonzero"/></svg>