<svg xmlns="http://www.w3.org/2000/svg" xmlns:xlink="http://www.w3.org/1999/xlink" width="500" zoomAndPan="magnify" viewBox="0 0 375 374.999991" height="500" preserveAspectRatio="xMidYMid meet" version="1.0"><defs><clipPath id="id1"><path d="M 9 139 L 365 139 L 365 263.777344 L 9 263.777344 Z M 9 139 " clip-rule="nonzero"/></clipPath></defs><rect x="-37.5" width="450" fill="#ffffff" y="-37.499999" height="449.999989" fill-opacity="1"/><rect x="-37.5" width="450" fill="#ffffff" y="-37.499999" height="449.999989" fill-opacity="1"/><rect x="-37.5" width="450" fill="#ffffff" y="-37.499999" height="449.999989" fill-opacity="1"/><path fill="#783884" d="M 182.984375 152.335938 C 185.265625 152.507812 187.546875 152.683594 189.828125 152.828125 C 243.195312 148.796875 296.539062 144.761719 349.90625 140.726562 C 352.730469 144.070312 363.6875 157.804688 363.242188 178.246094 C 362.84375 197.179688 352.902344 209.800781 349.90625 213.363281 C 295.742188 209.328125 241.582031 205.296875 187.421875 201.261719 C 132.441406 205.296875 77.488281 209.328125 22.507812 213.363281 C 19.78125 209.921875 9.421875 196.039062 10.386719 175.84375 C 11.28125 156.589844 21.863281 144.117188 24.9375 140.726562 C 74.984375 144.390625 125.054688 148.078125 175.101562 151.742188 M 175.101562 151.742188 C 177.730469 151.9375 180.359375 152.136719 183.011719 152.3125 " fill-opacity="1" fill-rule="nonzero"/><g clip-path="url(#id1)"><path fill="#111111" d="M 214.738281 224.847656 C 212.433594 218.191406 210.027344 211.308594 207.523438 204.601562 C 207.300781 204.007812 206.804688 203.636719 206.210938 203.636719 C 205.789062 203.636719 205.394531 203.835938 205.121094 204.132812 C 204.847656 204.453125 204.75 204.875 204.847656 205.320312 C 207.75 220.8125 213.203125 235.984375 218.308594 248.925781 C 217.066406 248.011719 215.828125 247.070312 214.640625 246.082031 C 214.019531 245.5625 213.5 244.96875 212.929688 244.324219 C 212.457031 243.804688 211.988281 243.234375 211.441406 242.738281 C 210.996094 242.34375 210.597656 242.070312 210.054688 242.046875 C 209.929688 241.726562 209.707031 241.476562 209.382812 241.328125 C 208.589844 236.230469 207.402344 231.28125 206.359375 227.097656 C 206.085938 226.035156 205.816406 224.921875 205.566406 223.855469 C 204.527344 219.453125 203.433594 214.898438 201.328125 210.914062 C 201.078125 210.445312 200.585938 210.148438 200.015625 210.148438 C 199.542969 210.148438 199.097656 210.34375 198.800781 210.664062 C 198.550781 210.9375 198.429688 211.308594 198.453125 211.707031 C 198.824219 215.515625 200.015625 219.230469 201.128906 222.816406 C 201.550781 224.152344 201.996094 225.566406 202.367188 226.925781 C 202.742188 228.210938 203.089844 229.472656 203.433594 230.761719 C 204.574219 234.871094 205.765625 239.101562 207.152344 243.210938 C 206.90625 243.953125 206.632812 244.695312 206.386719 245.460938 C 205.515625 247.960938 204.625 250.535156 203.804688 253.085938 C 203.507812 251.945312 203.1875 250.808594 202.890625 249.644531 C 199.542969 237.246094 196.097656 224.425781 191.636719 212.347656 C 191.414062 211.78125 190.941406 211.410156 190.371094 211.410156 C 189.976562 211.410156 189.578125 211.582031 189.332031 211.878906 C 189.058594 212.199219 188.960938 212.597656 189.035156 213.015625 C 191.460938 228.78125 196.195312 244.644531 200.78125 260.015625 L 201.402344 262.117188 C 201.699219 263.132812 202.566406 263.777344 203.609375 263.777344 C 203.980469 263.777344 204.328125 263.699219 204.675781 263.554688 C 205.441406 263.503906 206.039062 263.007812 206.210938 262.242188 C 207.054688 258.605469 207.75 254.867188 208.441406 251.253906 C 208.839844 249.222656 209.234375 247.144531 209.632812 245.066406 C 209.855469 245.511719 210.101562 246.03125 210.25 246.328125 C 210.476562 246.796875 210.597656 247.046875 210.671875 247.167969 L 210.699219 247.195312 C 211.589844 248.382812 212.632812 249.421875 213.425781 250.1875 C 215.234375 251.894531 217.960938 254.394531 220.886719 256.523438 C 221.234375 256.773438 221.605469 256.894531 221.976562 256.894531 C 222.695312 256.894531 223.390625 256.449219 223.785156 255.757812 C 224.332031 255.535156 224.726562 255.1875 224.976562 254.71875 C 225.148438 254.371094 225.296875 253.777344 224.976562 252.984375 C 221.28125 243.703125 217.960938 234.101562 214.738281 224.847656 Z M 359.722656 175.375 C 359.597656 171.910156 359.226562 168.496094 358.582031 165.15625 C 358.929688 171.019531 358.480469 177.132812 357.242188 183.441406 C 355.707031 191.3125 352.929688 199.480469 348.988281 207.722656 C 349.730469 207.96875 350.402344 208.09375 350.996094 208.09375 C 352.332031 208.09375 353.203125 207.449219 353.671875 206.136719 L 353.671875 206.113281 L 353.695312 206.085938 C 354.042969 205.371094 354.390625 204.578125 354.738281 203.6875 C 355.332031 202.226562 355.878906 200.742188 356.375 199.355469 C 357.144531 197.152344 357.761719 194.828125 358.332031 192.007812 C 359.421875 186.464844 359.894531 180.871094 359.722656 175.375 Z M 26.648438 154.019531 C 26.425781 151.839844 26.226562 149.636719 26.027344 147.410156 C 25.707031 149.339844 25.382812 151.269531 25.039062 153.175781 C 23.722656 160.675781 22.386719 168.421875 22.113281 176.214844 C 21.714844 186.386719 22.535156 196.632812 24.589844 207.472656 C 26.152344 197.425781 27.863281 186.117188 27.960938 174.855469 C 28.011719 167.851562 27.316406 160.824219 26.648438 154.019531 Z M 23.574219 143.351562 C 23.226562 143.375 22.855469 143.574219 22.757812 144.464844 L 22.757812 144.539062 L 22.707031 144.589844 C 21.890625 146.496094 21.171875 148.226562 20.476562 149.933594 C 19.433594 152.65625 18.492188 155.28125 17.699219 157.730469 C 15.816406 163.71875 14.699219 169.632812 14.378906 175.375 C 14.03125 181.6875 14.578125 187.699219 15.964844 193.21875 C 16.4375 195.074219 16.933594 196.808594 17.476562 198.441406 C 14.699219 177.503906 16.832031 158.101562 23.574219 143.351562 Z M 361.703125 193.910156 C 361.53125 194.53125 361.355469 195.25 361.183594 196.015625 C 359.671875 202.078125 357.414062 211.234375 351.589844 213.460938 C 350.898438 213.734375 350.175781 213.859375 349.433594 213.859375 C 348.070312 213.859375 346.730469 213.414062 345.714844 212.621094 C 345.492188 212.695312 345.246094 212.71875 344.996094 212.71875 C 343.980469 212.71875 342.964844 212.125 342.394531 211.210938 C 341.847656 210.34375 341.824219 209.328125 342.269531 208.414062 C 342.691406 207.574219 343.089844 206.707031 343.484375 205.863281 C 321.597656 202.746094 298.792969 200.347656 273.855469 198.539062 C 252.019531 196.957031 229.757812 196.140625 207.75 196.140625 C 189.035156 196.140625 170.046875 196.734375 151.304688 197.871094 C 111.449219 200.320312 71.613281 206.730469 33.09375 212.917969 L 29.054688 213.5625 C 28.90625 213.585938 28.730469 213.613281 28.582031 213.613281 C 28.210938 213.613281 27.839844 213.535156 27.515625 213.363281 C 26.324219 214.007812 25.136719 214.304688 23.996094 214.304688 C 18.371094 214.304688 14.949219 207.003906 12.617188 200.644531 C 9.199219 191.339844 8.257812 180.574219 9.890625 169.535156 C 10.734375 163.867188 12.296875 158.101562 14.503906 152.433594 C 14.726562 151.890625 14.921875 151.320312 15.171875 150.703125 C 16.460938 147.210938 18.121094 142.808594 20.898438 140.503906 C 21.640625 139.886719 22.632812 139.539062 23.648438 139.539062 C 25.261719 139.539062 26.550781 140.332031 26.921875 141.472656 C 26.972656 141.472656 27.019531 141.472656 27.046875 141.472656 C 27.714844 141.472656 28.285156 141.867188 28.457031 142.460938 C 32.273438 153.621094 32.871094 166.242188 32.96875 175.96875 C 33.117188 188.246094 32.101562 198.8125 29.921875 208.214844 C 52.304688 203.09375 75.058594 200.125 96.476562 197.5 C 132.121094 193.144531 167.664062 190.917969 202.195312 190.917969 C 250.976562 190.917969 298.792969 195.320312 344.328125 204.035156 C 349.335938 193.070312 352.332031 183.269531 353.5 174.0625 C 354.9375 162.878906 353.550781 152.433594 349.433594 143.03125 C 349.285156 142.683594 349.261719 142.335938 349.359375 141.964844 C 349.460938 140.851562 350.597656 139.910156 351.839844 139.910156 C 352.632812 139.910156 353.324219 140.28125 353.773438 140.976562 C 363.6875 156.195312 366.585938 175.5 361.703125 193.910156 Z M 180.53125 213.363281 C 179.515625 213.363281 178.695312 214.007812 178.425781 215.023438 C 176.960938 220.417969 175.648438 225.9375 174.410156 231.28125 C 173.765625 234.054688 173.09375 236.898438 172.402344 239.695312 C 172.027344 241.230469 171.609375 242.8125 171.210938 244.347656 C 170.21875 248.183594 169.203125 252.09375 168.507812 256.054688 C 168.113281 254.421875 167.640625 252.8125 167.171875 251.226562 C 166.300781 248.28125 165.410156 245.214844 165.015625 242.144531 C 171.039062 229.300781 175.078125 217.273438 176.988281 206.386719 C 177.085938 205.816406 176.960938 205.296875 176.613281 204.898438 C 176.292969 204.503906 175.773438 204.28125 175.25 204.28125 C 174.507812 204.28125 173.886719 204.75 173.613281 205.46875 C 170.195312 214.847656 167.246094 224.746094 164.417969 234.300781 C 163.601562 237.097656 162.734375 239.96875 161.890625 242.789062 C 157.503906 246.574219 152.324219 249.421875 147.289062 252.117188 C 155.621094 235.910156 161.417969 220.589844 164.519531 206.53125 C 164.59375 206.160156 164.492188 205.789062 164.269531 205.46875 C 163.996094 205.148438 163.601562 204.949219 163.203125 204.949219 C 162.757812 204.949219 162.386719 205.195312 162.164062 205.617188 C 158.148438 214.550781 154.332031 223.757812 150.636719 232.667969 C 147.710938 239.746094 144.6875 247.046875 141.566406 254.171875 C 141.21875 254.964844 141.339844 255.832031 141.910156 256.476562 C 142.085938 257.390625 142.878906 258.109375 143.769531 258.109375 C 144.09375 258.109375 144.414062 258.007812 144.714844 257.835938 C 145.679688 257.265625 146.671875 256.695312 147.664062 256.105469 C 152.792969 253.132812 158.097656 250.089844 162.410156 246.007812 C 162.558594 247.664062 162.90625 249.296875 163.277344 250.980469 C 163.453125 251.820312 163.625 252.714844 163.800781 253.554688 C 164.296875 256.203125 164.816406 258.949219 165.78125 261.398438 C 166.105469 262.242188 166.972656 262.613281 167.691406 262.636719 C 167.691406 262.859375 167.789062 263.058594 167.9375 263.207031 C 168.113281 263.40625 168.386719 263.503906 168.65625 263.503906 C 169.003906 263.503906 169.328125 263.304688 169.453125 263.007812 C 172.300781 257.21875 173.988281 250.808594 175.625 244.597656 C 175.945312 243.332031 176.292969 242.097656 176.613281 240.835938 C 176.988281 239.496094 177.359375 238.136719 177.703125 236.800781 C 179.539062 230.070312 181.449219 223.140625 182.933594 216.234375 C 183.085938 215.515625 182.910156 214.800781 182.488281 214.253906 C 181.992188 213.6875 181.273438 213.363281 180.53125 213.363281 Z M 264.113281 189.085938 C 265.058594 189.0625 265.972656 189.0625 266.890625 189.0625 C 281.8125 189.0625 296.882812 190.816406 311.460938 192.550781 C 313.964844 192.847656 316.441406 193.144531 318.945312 193.417969 C 318.996094 193.417969 319.042969 193.417969 319.09375 193.417969 C 319.664062 193.417969 320.109375 192.972656 320.183594 192.351562 C 320.257812 191.710938 319.886719 191.164062 319.292969 191.042969 C 302.734375 187.648438 284.886719 184.53125 266.46875 184.53125 C 265.699219 184.53125 264.90625 184.53125 264.140625 184.554688 C 262.675781 184.582031 261.933594 185.746094 261.933594 186.882812 C 261.957031 187.972656 262.703125 189.085938 264.113281 189.085938 Z M 52.476562 194.554688 C 52.351562 193.515625 52.847656 192.304688 54.0625 191.980469 C 62.738281 189.679688 72.132812 188.960938 81.207031 188.269531 C 82.816406 188.144531 84.429688 188.019531 86.039062 187.898438 C 86.089844 187.898438 86.113281 187.898438 86.164062 187.898438 C 86.882812 187.898438 87.476562 188.492188 87.550781 189.285156 C 87.625 190.074219 87.179688 190.71875 86.460938 190.867188 C 82.371094 191.535156 78.183594 192.378906 74.167969 193.195312 C 67.820312 194.480469 61.253906 195.816406 54.78125 196.484375 C 54.707031 196.484375 54.632812 196.484375 54.558594 196.484375 C 53.445312 196.484375 52.625 195.691406 52.476562 194.554688 " fill-opacity="1" fill-rule="nonzero"/></g><path fill="#111111" d="M 202.667969 143.351562 C 203.3125 144.8125 203.832031 146.46875 204.453125 147.953125 M 204.453125 147.953125 C 205.070312 149.441406 205.765625 150.726562 206.757812 151.445312 C 209.953125 153.769531 217.835938 151.492188 220.167969 154.6875 C 222.472656 157.828125 217.886719 164.609375 219.101562 168.398438 C 220.289062 172.035156 228.023438 174.804688 228.023438 178.863281 C 228.023438 182.921875 220.289062 185.695312 219.101562 189.332031 C 217.859375 193.121094 222.445312 199.902344 220.167969 203.042969 C 217.835938 206.234375 209.953125 203.960938 206.757812 206.285156 C 203.609375 208.585938 203.335938 216.78125 199.542969 218.015625 C 195.875 219.203125 190.867188 212.769531 186.804688 212.769531 C 182.738281 212.769531 177.730469 219.203125 174.0625 218.015625 C 170.269531 216.78125 169.996094 208.585938 166.847656 206.285156 C 163.652344 203.960938 155.769531 206.234375 153.4375 203.042969 C 151.132812 199.902344 155.71875 193.121094 154.503906 189.332031 C 153.3125 185.671875 145.582031 182.898438 145.582031 178.863281 C 145.582031 174.804688 153.3125 172.035156 154.503906 168.398438 C 155.742188 164.609375 151.15625 157.828125 153.4375 154.6875 C 155.769531 151.492188 163.652344 153.769531 166.847656 151.445312 C 169.996094 149.144531 170.269531 140.949219 174.0625 139.714844 C 177.730469 138.523438 182.738281 144.960938 186.804688 144.960938 C 190.867188 144.960938 195.875 138.523438 199.542969 139.714844 C 200.957031 140.183594 201.898438 141.617188 202.667969 143.351562 " fill-opacity="1" fill-rule="nonzero"/><path fill="#783884" d="M 166.871094 164.535156 C 163.503906 169.882812 161.914062 175.820312 162.335938 181.734375 C 162.757812 187.996094 165.335938 193.21875 169.773438 196.808594 C 173.8125 200.074219 179.316406 201.878906 185.289062 201.878906 C 188.390625 201.878906 191.511719 201.410156 194.5625 200.46875 C 200.484375 198.664062 205.566406 194.554688 208.839844 188.914062 C 212.136719 183.246094 213.152344 176.8125 211.664062 170.796875 C 209.039062 160.054688 198.625 152.261719 186.875 152.261719 C 185.464844 152.261719 184.027344 152.382812 182.636719 152.605469 C 182.515625 152.632812 182.363281 152.632812 182.242188 152.632812 C 181.570312 152.632812 181.027344 152.335938 180.628906 151.914062 C 180.628906 152.1875 180.457031 152.457031 180.183594 152.582031 C 174.832031 155.230469 170.09375 159.460938 166.871094 164.535156 Z M 212.40625 190.96875 C 208.863281 197.300781 203.285156 202.027344 196.691406 204.304688 C 192.875 205.617188 188.933594 206.285156 185.015625 206.285156 C 178.597656 206.285156 172.773438 204.503906 168.136719 201.136719 C 163.128906 197.476562 159.859375 192.105469 158.691406 185.570312 C 157.402344 178.394531 158.84375 170.871094 162.757812 164.410156 C 166.675781 157.929688 172.671875 153.226562 179.636719 151.121094 C 179.714844 151.097656 179.789062 151.097656 179.863281 151.097656 C 179.960938 151.097656 180.058594 151.121094 180.160156 151.171875 C 180.058594 150.949219 180.011719 150.703125 179.984375 150.480469 C 179.910156 149.441406 180.554688 148.597656 181.597656 148.425781 C 183.15625 148.175781 184.769531 148.027344 186.378906 148.027344 C 193 148.027344 199.59375 150.230469 204.945312 154.191406 C 210.5 158.324219 214.292969 164.140625 215.65625 170.574219 C 217.117188 177.40625 215.953125 184.632812 212.40625 190.96875 Z M 174.65625 187.824219 C 175.152344 187.824219 175.625 187.648438 175.996094 187.328125 C 183.652344 180.992188 189.332031 170.476562 193.867188 160.996094 C 194.066406 160.574219 194.066406 160.105469 193.816406 159.734375 C 193.570312 159.363281 193.148438 159.117188 192.726562 159.117188 C 192.304688 159.117188 191.910156 159.339844 191.660156 159.710938 C 188.214844 164.734375 185.09375 169.089844 182.09375 173 C 181.027344 174.386719 179.863281 175.769531 178.746094 177.109375 C 176.6875 179.558594 174.558594 182.082031 172.871094 184.828125 C 172.476562 185.449219 172.449219 186.164062 172.773438 186.757812 C 173.121094 187.429688 173.863281 187.824219 174.65625 187.824219 Z M 194.039062 169.363281 C 194.4375 169.363281 194.832031 169.535156 195.082031 169.832031 C 195.328125 170.128906 195.429688 170.523438 195.355469 170.945312 C 195.007812 172.675781 194.609375 174.285156 194.113281 175.820312 C 194.066406 175.996094 193.992188 176.191406 193.941406 176.390625 C 193.542969 177.675781 193.074219 179.164062 192.007812 180.101562 C 191.660156 180.398438 191.214844 180.574219 190.71875 180.574219 C 190.148438 180.574219 189.628906 180.347656 189.28125 179.976562 C 188.984375 179.632812 188.835938 179.210938 188.882812 178.742188 C 189.007812 177.453125 189.628906 176.390625 190.222656 175.375 C 190.347656 175.152344 190.496094 174.929688 190.621094 174.683594 C 191.414062 173.222656 192.132812 171.710938 192.726562 170.226562 C 192.949219 169.707031 193.46875 169.363281 194.039062 169.363281 " fill-opacity="1" fill-rule="nonzero"/></svg>