<svg xmlns="http://www.w3.org/2000/svg" xmlns:xlink="http://www.w3.org/1999/xlink" width="500" zoomAndPan="magnify" viewBox="0 0 375 374.999991" height="500" preserveAspectRatio="xMidYMid meet" version="1.0"><defs><clipPath id="id1"><path d="M 37.5 69 L 324 69 L 324 337.5 L 37.5 337.5 Z M 37.5 69 " clip-rule="nonzero"/></clipPath><clipPath id="id2"><path d="M 37.5 56 L 324 56 L 324 323 L 37.5 323 Z M 37.5 56 " clip-rule="nonzero"/></clipPath><clipPath id="id3"><path d="M 37.5 56 L 324 56 L 324 121 L 37.5 121 Z M 37.5 56 " clip-rule="nonzero"/></clipPath><clipPath id="id4"><path d="M 74 37.5 L 91 37.5 L 91 82 L 74 82 Z M 74 37.5 " clip-rule="nonzero"/></clipPath><clipPath id="id5"><path d="M 123 37.5 L 140 37.5 L 140 82 L 123 82 Z M 123 37.5 " clip-rule="nonzero"/></clipPath><clipPath id="id6"><path d="M 172 37.5 L 189 37.5 L 189 82 L 172 82 Z M 172 37.5 " clip-rule="nonzero"/></clipPath><clipPath id="id7"><path d="M 221 37.5 L 238 37.5 L 238 82 L 221 82 Z M 221 37.5 " clip-rule="nonzero"/></clipPath><clipPath id="id8"><path d="M 270 37.5 L 287 37.5 L 287 82 L 270 82 Z M 270 37.5 " clip-rule="nonzero"/></clipPath></defs><rect x="-37.5" width="450" fill="#ffffff" y="-37.499999" height="449.999989" fill-opacity="1"/><rect x="-37.5" width="450" fill="#ffffff" y="-37.499999" height="449.999989" fill-opacity="1"/><rect x="-37.5" width="450" fill="#ffffff" y="-37.499999" height="449.999989" fill-opacity="1"/><g clip-path="url(#id1)"><path fill="#9ec1cf" d="M 323.894531 322.738281 C 323.894531 330.855469 317.296875 337.433594 309.175781 337.433594 L 52.425781 337.433594 C 44.308594 337.433594 37.726562 330.855469 37.726562 322.738281 L 37.726562 83.949219 C 37.726562 75.835938 44.308594 69.257812 52.425781 69.257812 L 309.175781 69.257812 C 317.296875 69.257812 323.894531 75.835938 323.894531 83.949219 L 323.894531 322.738281 " fill-opacity="1" fill-rule="nonzero"/></g><g clip-path="url(#id2)"><path fill="#e6ecee" d="M 323.390625 307.332031 C 323.390625 315.933594 316.421875 322.898438 307.816406 322.898438 L 53.003906 322.898438 C 44.414062 322.898438 37.449219 315.933594 37.449219 307.332031 L 37.449219 71.785156 C 37.449219 63.183594 44.414062 56.222656 53.003906 56.222656 L 307.816406 56.222656 C 316.421875 56.222656 323.390625 63.183594 323.390625 71.785156 L 323.390625 307.332031 " fill-opacity="1" fill-rule="nonzero"/></g><g clip-path="url(#id3)"><path fill="#783884" d="M 323.390625 120.824219 L 323.390625 71.785156 C 323.390625 63.183594 316.421875 56.222656 307.816406 56.222656 L 53.003906 56.222656 C 44.414062 56.222656 37.449219 63.183594 37.449219 71.785156 L 37.449219 120.824219 L 323.390625 120.824219 " fill-opacity="1" fill-rule="nonzero"/></g><g clip-path="url(#id4)"><path fill="#040606" d="M 90.367188 73.863281 C 90.367188 78.347656 86.734375 81.996094 82.246094 81.996094 C 77.761719 81.996094 74.128906 78.347656 74.128906 73.863281 L 74.128906 45.699219 C 74.128906 41.214844 77.761719 37.585938 82.246094 37.585938 C 86.734375 37.585938 90.367188 41.214844 90.367188 45.699219 L 90.367188 73.863281 " fill-opacity="1" fill-rule="nonzero"/></g><g clip-path="url(#id5)"><path fill="#040606" d="M 139.441406 73.863281 C 139.441406 78.347656 135.8125 81.996094 131.339844 81.996094 C 126.835938 81.996094 123.207031 78.347656 123.207031 73.863281 L 123.207031 45.699219 C 123.207031 41.214844 126.835938 37.585938 131.339844 37.585938 C 135.8125 37.585938 139.441406 41.214844 139.441406 45.699219 L 139.441406 73.863281 " fill-opacity="1" fill-rule="nonzero"/></g><g clip-path="url(#id6)"><path fill="#040606" d="M 188.535156 73.863281 C 188.535156 78.347656 184.90625 81.996094 180.417969 81.996094 C 175.929688 81.996094 172.300781 78.347656 172.300781 73.863281 L 172.300781 45.699219 C 172.300781 41.214844 175.929688 37.585938 180.417969 37.585938 C 184.90625 37.585938 188.535156 41.214844 188.535156 45.699219 L 188.535156 73.863281 " fill-opacity="1" fill-rule="nonzero"/></g><g clip-path="url(#id7)"><path fill="#040606" d="M 237.632812 73.863281 C 237.632812 78.347656 233.980469 81.996094 229.496094 81.996094 C 225.027344 81.996094 221.394531 78.347656 221.394531 73.863281 L 221.394531 45.699219 C 221.394531 41.214844 225.027344 37.585938 229.496094 37.585938 C 233.980469 37.585938 237.632812 41.214844 237.632812 45.699219 L 237.632812 73.863281 " fill-opacity="1" fill-rule="nonzero"/></g><g clip-path="url(#id8)"><path fill="#040606" d="M 286.707031 73.863281 C 286.707031 78.347656 283.078125 81.996094 278.589844 81.996094 C 274.101562 81.996094 270.472656 78.347656 270.472656 73.863281 L 270.472656 45.699219 C 270.472656 41.214844 274.101562 37.585938 278.589844 37.585938 C 283.078125 37.585938 286.707031 41.214844 286.707031 45.699219 L 286.707031 73.863281 " fill-opacity="1" fill-rule="nonzero"/></g><path stroke-linecap="round" transform="matrix(0.174589, 0, 0, -0.174503, -190.51277, 558.493331)" fill="none" stroke-linejoin="round" d="M 1843.401697 2075.208794 C 1893.20627 2132.089101 1971.492974 2238.798438 1971.492974 2238.798438 L 1971.492974 1703.908653 " stroke="#232435" stroke-width="80" stroke-opacity="1" stroke-miterlimit="10"/><path stroke-linecap="round" transform="matrix(0.174589, 0, 0, -0.174503, -190.51277, 558.493331)" fill="none" stroke-linejoin="round" d="M 2130.594644 1705.900919 L 2251.593355 1705.900919 C 2263.608205 1706.594854 2275.108452 1705.990459 2287.302294 1707.893185 C 2358.608303 1719.108074 2414.789472 1760.408416 2435.597313 1829.891483 C 2453.004302 1888.002966 2449.692946 1963.5076 2399.910747 2006.800207 C 2362.009154 2039.907635 2306.991434 2036.303649 2259.894118 2036.303649 L 2130.594644 2036.303649 L 2130.594644 2236.806172 L 2378.901541 2236.806172 " stroke="#232435" stroke-width="80" stroke-opacity="1" stroke-miterlimit="10"/></svg>