<svg xmlns="http://www.w3.org/2000/svg" xmlns:xlink="http://www.w3.org/1999/xlink" width="500" zoomAndPan="magnify" viewBox="0 0 375 374.999991" height="500" preserveAspectRatio="xMidYMid meet" version="1.0"><defs><clipPath id="id1"><path d="M 13.273438 62.339844 L 362.007812 62.339844 L 362.007812 312.835938 L 13.273438 312.835938 Z M 13.273438 62.339844 " clip-rule="nonzero"/></clipPath></defs><rect x="-37.5" width="450" fill="#ffffff" y="-37.499999" height="449.999989" fill-opacity="1"/><rect x="-37.5" width="450" fill="#ffffff" y="-37.499999" height="449.999989" fill-opacity="1"/><rect x="-37.5" width="450" fill="#ffffff" y="-37.499999" height="449.999989" fill-opacity="1"/><path fill="#783884" d="M 172.6875 87.632812 L 340.199219 87.632812 C 340.902344 156.921875 341.550781 226.210938 342.253906 295.496094 C 239.484375 293.792969 136.714844 292.089844 33.941406 290.386719 L 33.941406 87.632812 L 149.136719 87.632812 " fill-opacity="1" fill-rule="nonzero"/><g clip-path="url(#id1)"><path fill="#111111" d="M 154.703125 252.011719 C 145.582031 251.359375 136.460938 250.957031 127.292969 250.757812 C 123.035156 250.660156 118.773438 250.609375 114.515625 250.609375 C 110.605469 250.558594 105.996094 251.207031 102.140625 250.609375 C 101.535156 250.308594 100.886719 250.207031 100.285156 250.40625 C 100.183594 250.457031 100.082031 250.457031 99.984375 250.507812 C 98.582031 250.957031 97.226562 252.664062 97.878906 254.214844 C 99.28125 257.621094 102.089844 257.070312 105.394531 257.019531 C 110.855469 256.96875 116.367188 256.96875 121.828125 256.921875 C 132.804688 256.769531 143.777344 256.320312 154.753906 255.515625 C 156.957031 255.316406 156.957031 252.160156 154.703125 252.011719 Z M 150.292969 266.386719 C 132.601562 265.539062 115.015625 265.839844 97.277344 266.136719 C 93.21875 266.1875 93.167969 272.550781 97.277344 272.453125 C 115.015625 272.050781 132.601562 271.601562 150.292969 270.097656 C 152.644531 269.894531 152.695312 266.488281 150.292969 266.386719 Z M 282.425781 268.945312 C 274.660156 266.789062 266.339844 266.386719 258.324219 265.6875 C 249.804688 264.9375 241.289062 264.285156 232.769531 263.734375 C 228.660156 263.433594 228.710938 269.847656 232.769531 270.097656 C 241.289062 270.648438 249.804688 271.148438 258.324219 271.5 C 266.289062 271.851562 274.457031 272.5 282.425781 271.351562 C 283.730469 271.148438 283.527344 269.242188 282.425781 268.945312 Z M 353.878906 186.328125 C 353.378906 168.144531 352.425781 150.007812 351.273438 131.871094 C 342.757812 130.421875 334.488281 126.210938 327.273438 120.800781 C 326.621094 121.703125 326.019531 122.554688 325.621094 123.507812 C 324.164062 127.164062 325.316406 132.425781 322.863281 135.378906 C 320.707031 137.984375 316.351562 138.136719 313.09375 139.539062 L 336.894531 195.800781 L 319.90625 184.324219 L 310.636719 210.527344 L 306.226562 199.003906 C 298.160156 199.40625 290.144531 200.460938 282.074219 200.808594 C 280.023438 200.910156 278.015625 201.007812 275.960938 201.058594 L 274.660156 204.515625 L 273.957031 201.160156 C 267.945312 201.359375 261.933594 201.5625 255.917969 201.710938 C 224.050781 202.464844 192.183594 202.8125 160.3125 203.164062 C 144.378906 203.363281 128.394531 203.515625 112.460938 203.714844 C 104.640625 203.816406 96.828125 203.863281 89.007812 203.964844 C 81.394531 204.066406 73.125 205.066406 65.609375 203.613281 C 62.453125 203.011719 62.550781 197.953125 65.609375 197.300781 C 74.226562 195.449219 84 196.5 92.765625 196.402344 C 101.535156 196.300781 110.304688 196.199219 119.074219 196.148438 C 150.992188 195.800781 182.914062 195.398438 214.832031 195.148438 C 225.351562 195.097656 235.875 195.046875 246.449219 195.097656 L 254.71875 175.660156 C 232.367188 178.414062 209.621094 179.066406 187.171875 179.867188 C 173.441406 180.367188 159.710938 180.769531 146.03125 181.070312 C 139.167969 181.21875 132.304688 181.371094 125.4375 181.46875 C 118.722656 181.570312 111.558594 182.371094 104.84375 181.46875 C 101.335938 181.019531 99.632812 175.257812 103.890625 174.609375 C 110.605469 173.554688 117.671875 174.054688 124.484375 173.957031 C 131.050781 173.855469 137.566406 173.707031 144.128906 173.554688 C 157.859375 173.253906 171.585938 172.855469 185.265625 172.453125 C 209.015625 171.703125 232.96875 170.148438 256.820312 170.597656 L 270.800781 137.683594 C 270.75 137.632812 270.648438 137.535156 270.601562 137.484375 C 267.59375 134.976562 262.234375 134.476562 260.179688 131.171875 C 258.121094 127.914062 259.976562 122.855469 259.023438 119.046875 C 258.074219 115.390625 254.015625 111.832031 254.316406 107.824219 C 254.617188 103.816406 259.074219 100.863281 260.527344 97.355469 C 261.984375 93.699219 260.828125 88.4375 263.285156 85.480469 C 265.789062 82.476562 271.152344 82.726562 274.457031 80.621094 C 277.714844 78.566406 279.871094 73.605469 283.679688 72.65625 C 287.335938 71.703125 291.59375 75.0625 295.554688 75.3125 C 296.105469 75.359375 296.65625 75.3125 297.207031 75.261719 C 296.808594 73.308594 296.507812 71.304688 296.507812 69.398438 C 288.488281 69.398438 280.421875 69.347656 272.402344 69.300781 C 230.5625 69.148438 188.722656 68.949219 146.835938 68.496094 C 123.382812 68.246094 99.882812 68.296875 76.480469 69.898438 C 76.132812 82.828125 68.617188 96.152344 60.648438 105.570312 C 51.027344 116.941406 38.148438 125.660156 24.371094 131.121094 C 24.21875 131.171875 24.070312 131.222656 23.96875 131.222656 C 23.320312 150.710938 22.515625 170.199219 22.117188 189.636719 C 21.714844 208.773438 21.464844 227.964844 21.316406 247.101562 C 32.789062 249.957031 43.5625 258.171875 51.328125 266.386719 C 60.148438 275.707031 68.816406 289.082031 70.320312 302.210938 C 78.136719 301.859375 85.902344 301.558594 93.71875 301.308594 C 138.265625 299.90625 182.8125 300.257812 227.308594 302.210938 C 249.105469 303.164062 270.851562 305.066406 292.699219 305.667969 C 294.402344 305.714844 296.105469 305.714844 297.808594 305.765625 C 299.363281 290.085938 306.828125 274.90625 316.800781 262.980469 C 325.917969 252.0625 339.949219 240.738281 354.632812 238.183594 C 354.429688 220.898438 354.378906 203.613281 353.878906 186.328125 Z M 354.230469 243.292969 C 348.867188 246.050781 343.457031 248.554688 338.445312 252.109375 C 332.28125 256.46875 326.722656 261.730469 321.910156 267.542969 C 312.640625 278.8125 307.582031 291.738281 305.074219 305.816406 C 320.960938 305.714844 336.644531 304.613281 352.527344 302.859375 C 353.328125 283.019531 353.929688 263.183594 354.230469 243.292969 Z M 62.550781 302.609375 C 60.597656 297.050781 59.144531 291.539062 56.339844 286.277344 C 53.382812 280.71875 49.824219 275.558594 45.667969 270.847656 C 41.457031 266.136719 36.699219 261.980469 31.484375 258.421875 C 28.128906 256.117188 24.570312 254.265625 20.960938 252.410156 C 20.914062 260.628906 20.863281 268.84375 20.863281 277.109375 C 20.863281 282.121094 20.863281 287.132812 20.863281 292.140625 C 20.863281 296.449219 21.214844 300.855469 20.460938 305.167969 C 34.492188 304.113281 48.523438 303.3125 62.550781 302.609375 Z M 23.921875 123.457031 C 35.242188 117.894531 45.765625 111.179688 54.285156 101.664062 C 58.792969 96.652344 62.550781 90.992188 65.507812 84.929688 C 67.863281 80.171875 69.214844 75.261719 70.621094 70.25 C 55.085938 71.503906 39.652344 73.457031 24.320312 76.511719 C 24.621094 92.195312 24.371094 107.824219 23.921875 123.457031 Z M 278.167969 195.296875 C 280.722656 195.347656 283.226562 195.398438 285.785156 195.449219 C 292.296875 195.648438 298.761719 196.300781 305.273438 196.601562 L 291.496094 160.480469 Z M 270.300781 184.425781 L 249.207031 194.996094 C 253.613281 194.996094 257.972656 194.996094 262.382812 195.046875 C 265.789062 195.046875 269.199219 195.097656 272.605469 195.148438 Z M 359.945312 303.0625 C 359.691406 306.71875 355.28125 307.570312 353.378906 305.515625 C 331.730469 312.578125 307.628906 312.679688 285.179688 312.03125 C 240.835938 310.777344 196.640625 307.921875 152.246094 307.972656 C 107.398438 308.023438 62.550781 309.574219 17.808594 312.832031 C 14.550781 313.082031 13.496094 309.675781 14.648438 307.371094 C 14.347656 307.019531 14.148438 306.617188 14 306.167969 C 12.945312 301.609375 13.347656 296.796875 13.347656 292.140625 C 13.347656 287.132812 13.347656 282.121094 13.398438 277.109375 C 13.445312 267.390625 13.496094 257.671875 13.597656 248.003906 C 13.796875 228.5625 14.097656 209.175781 14.550781 189.738281 C 15.453125 150.710938 15.550781 111.132812 20.0625 72.355469 C 20.261719 70.550781 22.214844 69.949219 23.367188 70.652344 C 39.703125 67.394531 56.238281 65.339844 72.824219 64.140625 C 73.425781 63.6875 74.179688 63.6875 74.832031 63.988281 C 80.140625 63.636719 85.5 63.335938 90.863281 63.136719 C 132.402344 61.433594 174.191406 62.835938 215.734375 63.835938 C 258.324219 64.890625 300.964844 65.242188 343.558594 67.195312 C 344.761719 67.246094 344.761719 69.050781 343.558594 69.050781 C 329.078125 69.347656 314.597656 69.398438 300.113281 69.347656 C 301.015625 70.902344 301.820312 72.457031 302.570312 74.109375 C 304.324219 73.757812 306.027344 73.605469 307.53125 74.210938 C 311.1875 75.660156 312.640625 80.871094 315.597656 83.328125 C 318.605469 85.832031 323.964844 86.332031 326.019531 89.636719 C 328.074219 92.894531 326.21875 97.957031 327.171875 101.765625 C 328.125 105.417969 332.183594 108.976562 331.882812 112.984375 C 331.832031 113.539062 331.730469 114.039062 331.53125 114.539062 C 333.085938 115.640625 334.640625 116.691406 336.292969 117.695312 C 340.953125 120.5 345.761719 122.203125 350.773438 123.855469 C 349.421875 105.921875 347.0625 87.835938 347.0625 69.847656 C 347.0625 67.59375 350.523438 67.09375 351.023438 69.300781 C 355.382812 88.1875 356.4375 108.226562 357.9375 127.464844 C 359.492188 146.703125 360.492188 165.992188 361.144531 185.277344 C 362.449219 224.507812 362.449219 263.933594 359.945312 303.0625 Z M 145.128906 155.46875 C 174.695312 155.167969 204.910156 155.871094 234.222656 152.164062 C 235.875 151.964844 235.925781 149.757812 234.222656 149.558594 C 204.808594 146.453125 174.644531 147.804688 145.128906 148.105469 C 140.421875 148.15625 140.421875 155.519531 145.128906 155.46875 Z M 310.835938 218.84375 C 295.003906 216.789062 278.867188 216.890625 262.882812 216.742188 C 246.597656 216.539062 230.3125 216.539062 213.980469 216.539062 C 182.011719 216.539062 150.039062 216.691406 118.121094 216.890625 C 99.632812 217.039062 81.144531 217.191406 62.652344 217.390625 C 57.84375 217.441406 57.792969 224.957031 62.652344 224.90625 C 126.890625 224.207031 191.128906 224.304688 255.367188 223.957031 C 273.808594 223.855469 292.496094 224.355469 310.835938 222.152344 C 312.941406 221.851562 312.941406 219.097656 310.835938 218.84375 Z M 287.289062 253.261719 C 268.445312 251.710938 249.503906 251.558594 230.5625 250.808594 C 226.203125 250.660156 226.203125 257.421875 230.5625 257.574219 C 249.457031 258.222656 268.445312 258.625 287.289062 256.671875 C 289.441406 256.46875 289.492188 253.460938 287.289062 253.261719 Z M 181.058594 119.648438 C 181.058594 111.683594 187.523438 105.269531 195.4375 105.269531 C 203.40625 105.269531 209.820312 111.734375 209.820312 119.648438 C 209.820312 127.566406 203.355469 134.027344 195.4375 134.027344 C 187.523438 134.027344 181.058594 127.566406 181.058594 119.648438 " fill-opacity="1" fill-rule="nonzero"/></g><path fill="#783884" d="M 282.324219 110.882812 C 281.523438 112.734375 280.871094 114.589844 280.671875 116.59375 C 280.523438 118.144531 282.125 119.5 283.578125 119.5 C 285.03125 119.5 286.636719 118.144531 286.484375 116.59375 C 286.335938 114.539062 285.683594 112.734375 284.832031 110.882812 C 284.429688 109.929688 282.726562 109.929688 282.324219 110.882812 Z M 300.566406 91.59375 C 295.703125 90.492188 291.445312 90.441406 287.335938 93.699219 C 284.28125 96.101562 280.222656 101.511719 281.671875 105.570312 C 282.226562 107.074219 284.03125 107.726562 285.28125 106.523438 C 287.539062 104.316406 287.4375 100.660156 289.390625 98.105469 C 291.996094 94.546875 296.203125 94 300.316406 93.644531 C 301.367188 93.496094 301.765625 91.84375 300.566406 91.59375 Z M 292.445312 80.621094 C 293.449219 80.421875 293.800781 81.773438 292.847656 82.125 C 286.234375 84.527344 278.316406 87.035156 274.058594 93.097656 C 270.25 98.507812 270.648438 105.921875 271.351562 112.234375 C 272.003906 118.09375 273.757812 124.359375 278.269531 128.417969 C 282.726562 132.375 288.890625 133.578125 294.703125 132.972656 C 300.765625 132.375 307.480469 129.867188 311.488281 125.058594 C 315.597656 120.097656 316.75 112.082031 316.699219 105.871094 C 316.648438 99.40625 314.546875 92.644531 309.433594 88.4375 C 303.871094 83.878906 296.304688 84.378906 289.542969 84.980469 C 286.234375 85.28125 286.183594 79.921875 289.542969 79.769531 C 297.007812 79.417969 304.925781 79.21875 311.339844 83.625 C 316.550781 87.234375 319.90625 93.246094 321.160156 99.40625 C 323.464844 110.980469 320.808594 126.011719 310.585938 133.023438 C 301.167969 139.488281 286.734375 141.140625 276.914062 134.527344 C 266.792969 127.714844 265.136719 114.335938 266.441406 103.117188 C 268.042969 89.1875 279.71875 83.027344 292.445312 80.621094 " fill-opacity="1" fill-rule="nonzero"/></svg>