<svg xmlns="http://www.w3.org/2000/svg" xmlns:xlink="http://www.w3.org/1999/xlink" width="500" zoomAndPan="magnify" viewBox="0 0 375 374.999991" height="500" preserveAspectRatio="xMidYMid meet" version="1.0"><rect x="-37.5" width="450" fill="#ffffff" y="-37.499999" height="449.999989" fill-opacity="1"/><rect x="-37.5" width="450" fill="#ffffff" y="-37.499999" height="449.999989" fill-opacity="1"/><rect x="-37.5" width="450" fill="#ffffff" y="-37.499999" height="449.999989" fill-opacity="1"/><path fill="#111111" d="M 357.082031 228.035156 C 357.109375 233.113281 353.015625 237.238281 347.925781 237.246094 L 302.046875 237.367188 C 296.984375 237.382812 292.882812 233.269531 292.871094 228.210938 C 292.84375 223.113281 296.945312 219.007812 302 218.988281 L 347.878906 218.871094 C 352.953125 218.871094 357.074219 222.957031 357.082031 228.035156 Z M 342.519531 177.625 C 344.703125 182.207031 342.75 187.683594 338.160156 189.867188 L 296.71875 209.566406 C 292.148438 211.734375 286.679688 209.777344 284.515625 205.195312 C 282.320312 200.621094 284.285156 195.148438 288.863281 192.953125 L 330.296875 173.261719 C 334.886719 171.097656 340.347656 173.042969 342.519531 177.625 Z M 342.769531 278.527344 C 344.914062 273.925781 342.953125 268.460938 338.363281 266.3125 L 296.828125 246.824219 C 292.230469 244.667969 286.78125 246.640625 284.625 251.234375 C 282.476562 255.832031 284.449219 261.296875 289.046875 263.445312 L 330.574219 282.945312 C 335.152344 285.09375 340.628906 283.117188 342.769531 278.527344 Z M 342.769531 278.527344 " fill-opacity="1" fill-rule="nonzero"/><path fill="#111111" d="M 284.972656 151.957031 C 271.945312 148.109375 260.261719 137.75 256.199219 131.292969 C 249.226562 120.199219 257.640625 117.324219 254.792969 86.394531 C 252.179688 58.082031 213.230469 27.628906 165.886719 24.535156 C 144.359375 23.128906 121.972656 27.527344 99.035156 40.082031 C 40.128906 72.324219 16.785156 140.476562 62.277344 206.296875 C 103.292969 265.625 64.808594 292.429688 64.808594 292.429688 C 64.808594 292.429688 66.332031 304.921875 91.546875 321.707031 C 116.769531 338.488281 147.710938 327.109375 147.710938 327.109375 C 147.710938 327.109375 157.910156 290.796875 191.273438 294.140625 C 215.183594 297.664062 248.765625 292.953125 257.253906 284.734375 C 265.191406 277.046875 255.867188 267.414062 262.199219 245.941406 C 240.5 243.8125 228.570312 233.460938 227.425781 218.871094 C 251.511719 221.210938 261.445312 213.5625 268.328125 205.140625 C 268.136719 200.179688 267.640625 189.65625 267.164062 182.601562 C 288.46875 176.433594 296.632812 155.402344 284.972656 151.957031 Z M 284.972656 151.957031 " fill-opacity="1" fill-rule="nonzero"/></svg>