<svg xmlns="http://www.w3.org/2000/svg" xmlns:xlink="http://www.w3.org/1999/xlink" width="500" zoomAndPan="magnify" viewBox="0 0 375 374.999991" height="500" preserveAspectRatio="xMidYMid meet" version="1.0"><defs><clipPath id="id1"><path d="M 9.121094 22.125 L 346.375 22.125 L 346.375 345 L 9.121094 345 Z M 9.121094 22.125 " clip-rule="nonzero"/></clipPath><clipPath id="id2"><path d="M 9.121094 35.359375 L 343 35.359375 L 343 352.867188 L 9.121094 352.867188 Z M 9.121094 35.359375 " clip-rule="nonzero"/></clipPath></defs><rect x="-37.5" width="450" fill="#ffffff" y="-37.499999" height="449.999989" fill-opacity="1"/><rect x="-37.5" width="450" fill="#ffffff" y="-37.499999" height="449.999989" fill-opacity="1"/><rect x="-37.5" width="450" fill="#ffffff" y="-37.499999" height="449.999989" fill-opacity="1"/><g clip-path="url(#id1)"><path fill="#7c4188" d="M 254.28125 22.378906 C 292.917969 21.1875 315.613281 23.632812 334.867188 41.960938 C 340.6875 47.519531 344.527344 52.878906 346.378906 55.789062 C 324.945312 48.445312 313.429688 52.015625 307.144531 55.789062 C 281.871094 71.007812 290.671875 120.035156 288.6875 235.6875 C 287.496094 306.414062 283.589844 322.957031 270.222656 334.863281 C 259.042969 344.855469 248.523438 344.988281 171.046875 344.0625 C 97.804688 343.269531 60.753906 342.472656 39.582031 325.601562 C 23.171875 312.503906 14.4375 296.027344 9.609375 284.054688 C 33.425781 292.390625 46.199219 288.75 53.40625 284.054688 C 72.265625 271.8125 71.273438 240.386719 69.554688 136.441406 C 68.625 78.085938 68.425781 48.644531 83.449219 35.015625 C 95.753906 23.898438 107.792969 26.214844 154.902344 25.816406 C 179.449219 25.621094 200.488281 24.695312 218.75 23.898438 M 218.75 23.898438 C 231.984375 23.304688 243.695312 22.710938 254.28125 22.378906 " fill-opacity="1" fill-rule="nonzero"/></g><g clip-path="url(#id2)"><path fill="#3a134f" d="M 248.589844 341.21875 C 225.832031 341.019531 203.136719 342.542969 180.441406 343.535156 C 158.210938 344.527344 135.980469 346.246094 113.683594 344.65625 C 93.4375 343.203125 73.125 338.769531 55.0625 329.242188 C 38.917969 320.707031 26.546875 308.996094 18.539062 293.183594 C 24.363281 296.886719 31.640625 298.476562 38.851562 298.875 C 54.929688 299.796875 71.402344 297.484375 87.480469 296.691406 C 120.363281 295.035156 153.316406 293.777344 186.265625 292.984375 C 187.257812 292.984375 188.050781 292.585938 188.582031 291.992188 C 194.136719 313.363281 210.347656 330.828125 230.855469 338.902344 C 234.035156 340.160156 235.425781 335 232.246094 333.742188 C 212.730469 326.066406 198.042969 310.453125 190.566406 290.933594 C 190.367188 290.402344 189.902344 290.136719 189.441406 290.203125 C 189.773438 288.289062 188.710938 286.101562 186.195312 286.167969 C 155.960938 286.964844 125.65625 288.289062 95.488281 290.273438 C 80.601562 291.265625 65.78125 292.519531 50.960938 293.582031 C 38.457031 294.503906 25.488281 293.84375 15.429688 286.234375 C 15.429688 286.234375 15.429688 286.234375 15.429688 286.167969 C 15.035156 285.109375 14.042969 284.449219 13.046875 284.183594 C 12.585938 283.722656 12.125 283.324219 11.65625 282.859375 C 10.800781 282 9.410156 283.125 10.003906 284.117188 C 10.070312 284.25 10.136719 284.316406 10.203125 284.449219 C 9.476562 284.910156 9.011719 285.773438 9.144531 287.03125 C 11.132812 302.113281 22.441406 315.082031 33.957031 324.347656 C 46.328125 334.339844 60.753906 341.285156 75.902344 345.78125 C 110.90625 356.105469 148.089844 352.992188 183.882812 349.820312 C 205.582031 347.902344 227.351562 346.3125 248.921875 343.203125 C 250.113281 343.136719 249.78125 341.21875 248.589844 341.21875 Z M 238.464844 261.355469 C 236.085938 261.953125 233.570312 262.285156 230.992188 262.285156 C 228.144531 262.285156 225.367188 261.890625 222.785156 261.160156 C 222.652344 268.175781 221.265625 275.386719 220.40625 282.199219 C 219.875 286.433594 219.347656 290.671875 218.75 294.902344 C 220.207031 291.792969 221.398438 288.089844 224.175781 286.101562 C 225.632812 285.046875 227.484375 285.972656 228.144531 287.425781 C 230.527344 291.199219 234.035156 294.375 236.945312 297.949219 C 236.746094 291.332031 237.210938 284.648438 237.539062 278.097656 C 237.871094 272.804688 237.609375 266.785156 238.464844 261.355469 Z M 245.613281 258.644531 C 246.539062 265.527344 244.554688 273.597656 243.894531 280.28125 C 243.097656 288.023438 242.4375 295.894531 240.449219 303.503906 C 240.585938 303.769531 240.648438 304.03125 240.78125 304.296875 C 241.710938 306.878906 238.335938 309.390625 236.085938 307.871094 C 232.84375 305.621094 230.527344 301.652344 228.609375 298.210938 C 227.75 296.691406 226.753906 295.035156 226.03125 293.316406 C 225.761719 293.710938 225.5 294.042969 225.167969 294.503906 C 224.175781 295.964844 223.316406 297.550781 222.324219 299.003906 C 220.667969 301.585938 219.015625 303.902344 216.632812 305.753906 C 215.507812 308.332031 210.945312 307.605469 211.207031 304.5625 C 211.867188 296.820312 213.457031 289.144531 214.648438 281.472656 C 215.839844 274.257812 216.367188 266.648438 218.285156 259.574219 C 207.4375 254.742188 199.828125 243.824219 199.828125 231.125 C 199.828125 213.921875 213.789062 199.960938 230.992188 199.960938 C 248.195312 199.960938 262.152344 213.921875 262.152344 231.125 C 262.21875 243.03125 255.472656 253.417969 245.613281 258.644531 Z M 129.5625 255.007812 C 123.210938 254.476562 116.792969 254.144531 110.375 254.078125 C 104.75 254.015625 98.199219 252.824219 93.105469 255.46875 C 91.320312 256.394531 91.1875 259.507812 93.105469 260.429688 C 98.066406 262.746094 103.824219 261.621094 109.25 261.621094 C 115.667969 261.621094 122.019531 261.753906 128.4375 261.890625 C 141.207031 262.285156 153.910156 263.144531 166.613281 263.542969 C 168.269531 263.609375 168.597656 261.027344 167.011719 260.628906 C 154.769531 257.652344 142.199219 256.0625 129.5625 255.007812 Z M 171.839844 211.339844 C 158.011719 210.675781 144.25 210.347656 130.421875 210.015625 C 123.871094 209.882812 117.386719 209.683594 110.839844 209.484375 C 104.222656 209.289062 96.945312 208.03125 90.527344 209.484375 C 87.550781 210.148438 87.878906 214.382812 90.527344 215.175781 C 96.480469 216.960938 103.558594 216.238281 109.714844 216.367188 C 116.59375 216.5 123.542969 216.5 130.421875 216.433594 C 144.25 216.238281 158.078125 215.507812 171.839844 213.984375 C 173.496094 213.855469 173.5625 211.402344 171.839844 211.339844 Z M 254.941406 175.347656 C 228.410156 172.371094 202.011719 171.707031 175.414062 170.582031 C 149.015625 169.457031 122.21875 168.53125 95.882812 170.054688 C 90.589844 170.386719 90.527344 178.125 95.882812 178.257812 C 122.351562 179.117188 149.015625 178.125 175.414062 177.726562 C 201.945312 177.332031 228.410156 178.058594 254.941406 177.199219 C 256.199219 177.199219 256.132812 175.480469 254.941406 175.347656 Z M 134.257812 121.292969 C 127.378906 121.292969 120.5 121.292969 113.617188 121.355469 C 107 121.425781 101.3125 121.15625 95.355469 123.9375 C 93.4375 124.796875 94.296875 127.378906 95.882812 127.972656 C 101.707031 130.289062 107.464844 129.628906 113.617188 129.5625 C 120.5 129.429688 127.378906 129.363281 134.257812 129.363281 C 147.625 129.363281 160.992188 129.628906 174.355469 130.089844 C 201.019531 130.949219 227.617188 132.539062 254.28125 133.203125 C 255.804688 133.265625 256.199219 130.75 254.675781 130.488281 C 228.144531 125.527344 201.28125 123.277344 174.355469 122.148438 C 160.992188 121.625 147.625 121.355469 134.257812 121.292969 Z M 91.980469 82.917969 C 105.082031 84.570312 119.175781 83.050781 132.339844 82.980469 C 145.773438 82.917969 159.269531 82.851562 172.699219 82.785156 C 185.734375 82.71875 198.835938 82.453125 211.867188 82.386719 C 225.433594 82.320312 239.394531 81.726562 252.957031 82.71875 C 254.480469 82.851562 254.8125 80.269531 253.289062 80.070312 C 240.1875 78.21875 227.417969 76.632812 214.121094 76.167969 C 200.289062 75.703125 186.464844 75.308594 172.632812 75.242188 C 159.136719 75.109375 145.707031 75.175781 132.273438 75.175781 C 118.710938 75.242188 104.355469 74.050781 90.921875 75.902344 C 86.621094 76.433594 88.34375 82.453125 91.980469 82.917969 Z M 338.703125 56.648438 C 334.207031 53.804688 331.492188 49.902344 327.722656 46.328125 C 322.492188 41.367188 315.414062 41.5 309.527344 45.335938 C 298.941406 52.214844 295.566406 68.691406 293.847656 80.269531 C 290.207031 105.015625 294.308594 130.355469 295.832031 155.101562 C 297.351562 180.972656 297.550781 206.90625 296.292969 232.777344 C 295.101562 257.191406 293.515625 282.464844 288.417969 306.414062 C 284.714844 323.949219 273.269531 343.601562 252.691406 341.351562 C 251.503906 341.21875 251.433594 339.496094 252.691406 339.496094 C 267.382812 339.300781 277.570312 326.464844 281.539062 313.496094 C 285.707031 299.933594 286.371094 285.046875 287.625 270.949219 C 289.941406 244.421875 290.933594 217.6875 290.472656 191.09375 C 290.007812 164.960938 286.964844 139.023438 285.507812 112.953125 C 284.316406 91.582031 284.78125 64.390625 298.609375 46.660156 C 304.234375 39.445312 312.570312 34.351562 321.964844 35.742188 C 331.957031 37.199219 335.53125 45.996094 342.078125 52.285156 C 344.261719 54.53125 341.285156 58.304688 338.703125 56.648438 " fill-opacity="1" fill-rule="nonzero"/></g><path fill="#7c4188" d="M 243.695312 234.761719 C 242.703125 235.621094 242.570312 237.078125 242.636719 238.335938 C 242.703125 239.523438 242.636719 240.648438 242.765625 241.839844 C 242.964844 243.890625 244.488281 245.542969 246.671875 245.214844 C 248.921875 244.882812 249.847656 242.964844 249.515625 240.914062 C 249.25 239.394531 248.722656 237.605469 247.929688 236.28125 C 247.132812 234.695312 245.28125 233.4375 243.695312 234.761719 Z M 225.367188 214.515625 C 224.375 214.25 224.175781 212.792969 225.101562 212.332031 C 233.570312 207.898438 243.03125 213.785156 246.074219 222.125 C 246.539062 223.3125 246.011719 224.902344 245.148438 225.761719 C 243.894531 226.953125 242.171875 227.28125 240.648438 226.359375 C 238.929688 225.363281 238.464844 223.050781 237.410156 221.53125 C 234.628906 217.492188 229.863281 215.640625 225.367188 214.515625 " fill-opacity="1" fill-rule="nonzero"/></svg>